# MagicaVoxel @ Ephtracy

# group
o 

# material
mtllib lilypad 15 x 15.mtl
usemtl palette

# normals
vn -1 0 0
vn 1 0 0
vn 0 0 1
vn 0 0 -1
vn 0 -1 0
vn 0 1 0

# texcoords
vt 0.892578 0.5
vt 0.896484 0.5

# verts
v -0.6 0 0.3
v -0.6 0 0.1
v -0.6 0 -0.2
v -0.6 0 -0.4
v -0.6 0.2 0.3
v -0.6 0.2 0.1
v -0.6 0.2 -0.2
v -0.6 0.2 -0.4
v -0.5 0 0.4
v -0.5 0 0.3
v -0.5 0 -0.4
v -0.5 0 -0.5
v -0.5 0.2 0.4
v -0.5 0.2 0.3
v -0.5 0.2 -0.4
v -0.5 0.2 -0.5
v -0.4 0 0.5
v -0.4 0 0.4
v -0.4 0 -0.5
v -0.4 0 -0.6
v -0.4 0.2 0.5
v -0.4 0.2 0.4
v -0.4 0.2 -0.5
v -0.4 0.2 -0.6
v -0.3 0 0.6
v -0.3 0 0.5
v -0.3 0 0.1
v -0.3 0 0
v -0.3 0 -0.1
v -0.3 0 -0.2
v -0.3 0 -0.6
v -0.3 0 -0.7
v -0.3 0.1 0.1
v -0.3 0.1 0
v -0.3 0.1 -0.1
v -0.3 0.1 -0.2
v -0.3 0.2 0.6
v -0.3 0.2 0.5
v -0.3 0.2 -0.6
v -0.3 0.2 -0.7
v -0.1 0 0.7
v -0.1 0 0.6
v -0.1 0 0
v -0.1 0 -0.1
v -0.1 0 -0.7
v -0.1 0 -0.8
v -0.1 0.1 0
v -0.1 0.1 -0.1
v -0.1 0.2 0.7
v -0.1 0.2 0.6
v -0.1 0.2 -0.7
v -0.1 0.2 -0.8
v 0.2 0.1 0.6
v 0.2 0.1 0.5
v 0.2 0.1 -0.6
v 0.2 0.1 -0.7
v 0.2 0.2 0.6
v 0.2 0.2 0.5
v 0.2 0.2 -0.6
v 0.2 0.2 -0.7
v 0.4 0.1 0.5
v 0.4 0.1 0.4
v 0.4 0.1 -0.5
v 0.4 0.1 -0.6
v 0.4 0.2 0.5
v 0.4 0.2 0.4
v 0.4 0.2 -0.5
v 0.4 0.2 -0.6
v 0.5 0.1 0.4
v 0.5 0.1 0.3
v 0.5 0.1 -0.4
v 0.5 0.1 -0.5
v 0.5 0.2 0.4
v 0.5 0.2 0.3
v 0.5 0.2 -0.4
v 0.5 0.2 -0.5
v 0.6 0.1 0.3
v 0.6 0.1 0.2
v 0.6 0.1 0.1
v 0.6 0.1 -0.2
v 0.6 0.1 -0.4
v 0.6 0.2 0.3
v 0.6 0.2 0.1
v 0.6 0.2 -0.2
v 0.6 0.2 -0.4
v 0.7 0.1 0.1
v 0.7 0.1 -0.2
v 0.7 0.2 0.1
v 0.7 0.2 -0.2
v -0.5 0.1 0.3
v -0.5 0.1 0.1
v -0.5 0.1 -0.2
v -0.5 0.1 -0.4
v -0.5 0.2 0.3
v -0.5 0.2 0.1
v -0.5 0.2 -0.2
v -0.5 0.2 -0.4
v -0.4 0.1 0.4
v -0.4 0.1 0.3
v -0.4 0.1 -0.4
v -0.4 0.1 -0.5
v -0.4 0.2 0.4
v -0.4 0.2 0.3
v -0.4 0.2 -0.4
v -0.4 0.2 -0.5
v -0.3 0.1 0.5
v -0.3 0.1 0.4
v -0.3 0.1 -0.5
v -0.3 0.1 -0.6
v -0.3 0.2 0.5
v -0.3 0.2 0.4
v -0.3 0.2 -0.5
v -0.3 0.2 -0.6
v -0.1 0.1 0.6
v -0.1 0.1 0.5
v -0.1 0.1 -0.6
v -0.1 0.1 -0.7
v -0.1 0.2 0.6
v -0.1 0.2 0.5
v -0.1 0.2 -0.6
v -0.1 0.2 -0.7
v 0.2 0 0.7
v 0.2 0 0.6
v 0.2 0 -0.7
v 0.2 0 -0.8
v 0.2 0.2 0.7
v 0.2 0.2 0.6
v 0.2 0.2 -0.7
v 0.2 0.2 -0.8
v 0.4 0 0.6
v 0.4 0 0.5
v 0.4 0 -0.6
v 0.4 0 -0.7
v 0.4 0.2 0.6
v 0.4 0.2 0.5
v 0.4 0.2 -0.6
v 0.4 0.2 -0.7
v 0.5 0 0.5
v 0.5 0 0.4
v 0.5 0 -0.5
v 0.5 0 -0.6
v 0.5 0.2 0.5
v 0.5 0.2 0.4
v 0.5 0.2 -0.5
v 0.5 0.2 -0.6
v 0.6 0 0.4
v 0.6 0 0.3
v 0.6 0 -0.4
v 0.6 0 -0.5
v 0.6 0.2 0.4
v 0.6 0.2 0.3
v 0.6 0.2 -0.4
v 0.6 0.2 -0.5
v 0.7 0 0.3
v 0.7 0 0.1
v 0.7 0 -0.2
v 0.7 0 -0.4
v 0.7 0.2 0.3
v 0.7 0.2 0.1
v 0.7 0.2 -0.2
v 0.7 0.2 -0.4
v 0.8 0 0.1
v 0.8 0 -0.2
v 0.8 0.2 0.1
v 0.8 0.2 -0.2
v -0.1 0 0.7
v -0.1 0.2 0.7
v 0.2 0 0.7
v 0.2 0.2 0.7
v -0.3 0 0.6
v -0.3 0.2 0.6
v -0.1 0 0.6
v -0.1 0.2 0.6
v 0.2 0 0.6
v 0.2 0.2 0.6
v 0.4 0 0.6
v 0.4 0.2 0.6
v -0.4 0 0.5
v -0.4 0.2 0.5
v -0.3 0 0.5
v -0.3 0.2 0.5
v 0.4 0 0.5
v 0.4 0.2 0.5
v 0.5 0 0.5
v 0.5 0.2 0.5
v -0.5 0 0.4
v -0.5 0.2 0.4
v -0.4 0 0.4
v -0.4 0.2 0.4
v 0.5 0 0.4
v 0.5 0.2 0.4
v 0.6 0 0.4
v 0.6 0.2 0.4
v -0.6 0 0.3
v -0.6 0.2 0.3
v -0.5 0 0.3
v -0.5 0.2 0.3
v 0.6 0 0.3
v 0.6 0.2 0.3
v 0.7 0 0.3
v 0.7 0.2 0.3
v 0.7 0 0.1
v 0.7 0.2 0.1
v 0.8 0 0.1
v 0.8 0.2 0.1
v -0.3 0 -0.1
v -0.3 0.1 -0.1
v -0.2 0 -0.1
v -0.2 0.1 -0.1
v -0.1 0 -0.1
v -0.1 0.1 -0.1
v -0.6 0 -0.2
v -0.6 0.2 -0.2
v -0.5 0 -0.2
v -0.5 0.1 -0.2
v -0.5 0.2 -0.2
v -0.3 0 -0.2
v -0.3 0.1 -0.2
v 0.6 0.1 -0.2
v 0.6 0.2 -0.2
v 0.7 0.1 -0.2
v 0.7 0.2 -0.2
v -0.5 0.1 -0.4
v -0.5 0.2 -0.4
v -0.4 0.1 -0.4
v -0.4 0.2 -0.4
v 0.5 0.1 -0.4
v 0.5 0.2 -0.4
v 0.6 0.1 -0.4
v 0.6 0.2 -0.4
v -0.4 0.1 -0.5
v -0.4 0.2 -0.5
v -0.3 0.1 -0.5
v -0.3 0.2 -0.5
v 0.4 0.1 -0.5
v 0.4 0.2 -0.5
v 0.5 0.1 -0.5
v 0.5 0.2 -0.5
v -0.3 0.1 -0.6
v -0.3 0.2 -0.6
v -0.1 0.1 -0.6
v -0.1 0.2 -0.6
v 0.2 0.1 -0.6
v 0.2 0.2 -0.6
v 0.4 0.1 -0.6
v 0.4 0.2 -0.6
v -0.1 0.1 -0.7
v -0.1 0.2 -0.7
v 0.2 0.1 -0.7
v 0.2 0.2 -0.7
v -0.1 0.1 0.6
v -0.1 0.2 0.6
v 0.2 0.1 0.6
v 0.2 0.2 0.6
v -0.3 0.1 0.5
v -0.3 0.2 0.5
v -0.1 0.1 0.5
v -0.1 0.2 0.5
v 0.2 0.1 0.5
v 0.2 0.2 0.5
v 0.4 0.1 0.5
v 0.4 0.2 0.5
v -0.4 0.1 0.4
v -0.4 0.2 0.4
v -0.3 0.1 0.4
v -0.3 0.2 0.4
v 0.4 0.1 0.4
v 0.4 0.2 0.4
v 0.5 0.1 0.4
v 0.5 0.2 0.4
v -0.5 0.1 0.3
v -0.5 0.2 0.3
v -0.4 0.1 0.3
v -0.4 0.2 0.3
v 0.5 0.1 0.3
v 0.5 0.2 0.3
v 0.6 0.1 0.3
v 0.6 0.2 0.3
v -0.6 0 0.1
v -0.6 0.2 0.1
v -0.5 0 0.1
v -0.5 0.1 0.1
v -0.5 0.2 0.1
v -0.3 0 0.1
v -0.3 0.1 0.1
v 0.6 0.1 0.1
v 0.6 0.2 0.1
v 0.7 0.1 0.1
v 0.7 0.2 0.1
v -0.3 0 0
v -0.3 0.1 0
v -0.2 0 0
v -0.2 0.1 0
v -0.1 0 0
v -0.1 0.1 0
v 0.7 0 -0.2
v 0.7 0.2 -0.2
v 0.8 0 -0.2
v 0.8 0.2 -0.2
v -0.6 0 -0.4
v -0.6 0.2 -0.4
v -0.5 0 -0.4
v -0.5 0.2 -0.4
v 0.6 0 -0.4
v 0.6 0.2 -0.4
v 0.7 0 -0.4
v 0.7 0.2 -0.4
v -0.5 0 -0.5
v -0.5 0.2 -0.5
v -0.4 0 -0.5
v -0.4 0.2 -0.5
v 0.5 0 -0.5
v 0.5 0.2 -0.5
v 0.6 0 -0.5
v 0.6 0.2 -0.5
v -0.4 0 -0.6
v -0.4 0.2 -0.6
v -0.3 0 -0.6
v -0.3 0.2 -0.6
v 0.4 0 -0.6
v 0.4 0.2 -0.6
v 0.5 0 -0.6
v 0.5 0.2 -0.6
v -0.3 0 -0.7
v -0.3 0.2 -0.7
v -0.1 0 -0.7
v -0.1 0.2 -0.7
v 0.2 0 -0.7
v 0.2 0.2 -0.7
v 0.4 0 -0.7
v 0.4 0.2 -0.7
v -0.1 0 -0.8
v -0.1 0.2 -0.8
v 0.2 0 -0.8
v 0.2 0.2 -0.8
v -0.1 0 0.7
v 0.2 0 0.7
v -0.3 0 0.6
v -0.1 0 0.6
v 0.2 0 0.6
v 0.4 0 0.6
v -0.4 0 0.5
v -0.3 0 0.5
v -0.1 0 0.5
v 0.1 0 0.5
v 0.2 0 0.5
v 0.4 0 0.5
v 0.5 0 0.5
v -0.5 0 0.4
v -0.4 0 0.4
v -0.1 0 0.4
v -5.96046e-08 0 0.4
v 0.4 0 0.4
v 0.5 0 0.4
v 0.6 0 0.4
v -0.6 0 0.3
v -0.5 0 0.3
v -0.3 0 0.3
v -0.2 0 0.3
v 0.1 0 0.3
v 0.2 0 0.3
v 0.4 0 0.3
v 0.5 0 0.3
v 0.6 0 0.3
v 0.7 0 0.3
v -5.96046e-08 0 0.2
v 0.1 0 0.2
v 0.5 0 0.2
v 0.6 0 0.2
v -0.6 0 0.1
v -0.5 0 0.1
v -0.3 0 0.1
v -0.2 0 0.1
v -0.1 0 0.1
v 0.5 0 0.1
v 0.7 0 0.1
v 0.8 0 0.1
v -0.3 0 0
v -0.2 0 0
v -0.1 0 0
v 0.1 0 0
v 0.2 0 0
v 0.4 0 0
v -0.3 0 -0.1
v -0.2 0 -0.1
v -0.1 0 -0.1
v -5.96046e-08 0 -0.1
v 0.1 0 -0.1
v 0.3 0 -0.1
v 0.4 0 -0.1
v 0.5 0 -0.1
v -0.6 0 -0.2
v -0.5 0 -0.2
v -0.3 0 -0.2
v -0.2 0 -0.2
v 0.1 0 -0.2
v 0.2 0 -0.2
v 0.4 0 -0.2
v 0.5 0 -0.2
v 0.6 0 -0.2
v 0.7 0 -0.2
v 0.8 0 -0.2
v -0.2 0 -0.3
v -0.1 0 -0.3
v -5.96046e-08 0 -0.3
v 0.1 0 -0.3
v 0.3 0 -0.3
v 0.4 0 -0.3
v -0.6 0 -0.4
v -0.5 0 -0.4
v -0.4 0 -0.4
v -0.3 0 -0.4
v -0.2 0 -0.4
v -5.96046e-08 0 -0.4
v 0.1 0 -0.4
v 0.4 0 -0.4
v 0.5 0 -0.4
v 0.6 0 -0.4
v 0.7 0 -0.4
v -0.5 0 -0.5
v -0.4 0 -0.5
v -0.3 0 -0.5
v 0.1 0 -0.5
v 0.2 0 -0.5
v 0.4 0 -0.5
v 0.5 0 -0.5
v 0.6 0 -0.5
v -0.4 0 -0.6
v -0.3 0 -0.6
v -0.1 0 -0.6
v -5.96046e-08 0 -0.6
v 0.1 0 -0.6
v 0.2 0 -0.6
v 0.4 0 -0.6
v 0.5 0 -0.6
v -0.3 0 -0.7
v -0.1 0 -0.7
v 0.2 0 -0.7
v 0.4 0 -0.7
v -0.1 0 -0.8
v 0.2 0 -0.8
v -0.1 0.1 0.6
v 0.2 0.1 0.6
v -0.3 0.1 0.5
v -0.1 0.1 0.5
v 0.1 0.1 0.5
v 0.2 0.1 0.5
v 0.4 0.1 0.5
v -0.4 0.1 0.4
v -0.3 0.1 0.4
v -0.1 0.1 0.4
v -5.96046e-08 0.1 0.4
v 0.4 0.1 0.4
v 0.5 0.1 0.4
v -0.5 0.1 0.3
v -0.4 0.1 0.3
v -0.3 0.1 0.3
v -0.2 0.1 0.3
v 0.1 0.1 0.3
v 0.2 0.1 0.3
v 0.4 0.1 0.3
v 0.5 0.1 0.3
v 0.6 0.1 0.3
v -5.96046e-08 0.1 0.2
v 0.1 0.1 0.2
v 0.5 0.1 0.2
v 0.6 0.1 0.2
v -0.5 0.1 0.1
v -0.3 0.1 0.1
v -0.2 0.1 0.1
v -0.1 0.1 0.1
v 0.5 0.1 0.1
v 0.6 0.1 0.1
v 0.7 0.1 0.1
v -0.3 0.1 0
v -0.2 0.1 0
v -0.1 0.1 0
v 0.1 0.1 0
v 0.2 0.1 0
v 0.4 0.1 0
v -0.3 0.1 -0.1
v -0.2 0.1 -0.1
v -0.1 0.1 -0.1
v -5.96046e-08 0.1 -0.1
v 0.1 0.1 -0.1
v 0.3 0.1 -0.1
v 0.4 0.1 -0.1
v 0.5 0.1 -0.1
v -0.5 0.1 -0.2
v -0.3 0.1 -0.2
v -0.2 0.1 -0.2
v 0.1 0.1 -0.2
v 0.2 0.1 -0.2
v 0.4 0.1 -0.2
v 0.5 0.1 -0.2
v 0.6 0.1 -0.2
v 0.7 0.1 -0.2
v -0.2 0.1 -0.3
v -0.1 0.1 -0.3
v -5.96046e-08 0.1 -0.3
v 0.1 0.1 -0.3
v 0.3 0.1 -0.3
v 0.4 0.1 -0.3
v -0.5 0.1 -0.4
v -0.4 0.1 -0.4
v -0.3 0.1 -0.4
v -0.2 0.1 -0.4
v -5.96046e-08 0.1 -0.4
v 0.1 0.1 -0.4
v 0.4 0.1 -0.4
v 0.5 0.1 -0.4
v 0.6 0.1 -0.4
v -0.4 0.1 -0.5
v -0.3 0.1 -0.5
v 0.1 0.1 -0.5
v 0.2 0.1 -0.5
v 0.4 0.1 -0.5
v 0.5 0.1 -0.5
v -0.3 0.1 -0.6
v -0.1 0.1 -0.6
v -5.96046e-08 0.1 -0.6
v 0.1 0.1 -0.6
v 0.2 0.1 -0.6
v 0.4 0.1 -0.6
v -0.1 0.1 -0.7
v 0.2 0.1 -0.7
v -0.1 0.2 0.7
v 0.2 0.2 0.7
v -0.3 0.2 0.6
v -0.1 0.2 0.6
v 0.2 0.2 0.6
v 0.4 0.2 0.6
v -0.4 0.2 0.5
v -0.3 0.2 0.5
v -0.1 0.2 0.5
v 0.2 0.2 0.5
v 0.4 0.2 0.5
v 0.5 0.2 0.5
v -0.5 0.2 0.4
v -0.4 0.2 0.4
v -0.3 0.2 0.4
v 0.4 0.2 0.4
v 0.5 0.2 0.4
v 0.6 0.2 0.4
v -0.6 0.2 0.3
v -0.5 0.2 0.3
v -0.4 0.2 0.3
v 0.5 0.2 0.3
v 0.6 0.2 0.3
v 0.7 0.2 0.3
v -0.6 0.2 0.1
v -0.5 0.2 0.1
v 0.6 0.2 0.1
v 0.7 0.2 0.1
v 0.8 0.2 0.1
v -0.6 0.2 -0.2
v -0.5 0.2 -0.2
v 0.6 0.2 -0.2
v 0.7 0.2 -0.2
v 0.8 0.2 -0.2
v -0.6 0.2 -0.4
v -0.5 0.2 -0.4
v -0.4 0.2 -0.4
v 0.5 0.2 -0.4
v 0.6 0.2 -0.4
v 0.7 0.2 -0.4
v -0.5 0.2 -0.5
v -0.4 0.2 -0.5
v -0.3 0.2 -0.5
v 0.4 0.2 -0.5
v 0.5 0.2 -0.5
v 0.6 0.2 -0.5
v -0.4 0.2 -0.6
v -0.3 0.2 -0.6
v -0.1 0.2 -0.6
v 0.2 0.2 -0.6
v 0.4 0.2 -0.6
v 0.5 0.2 -0.6
v -0.3 0.2 -0.7
v -0.1 0.2 -0.7
v 0.2 0.2 -0.7
v 0.4 0.2 -0.7
v -0.1 0.2 -0.8
v 0.2 0.2 -0.8

# faces
f 5/2/1 2/2/1 1/2/1
f 6/2/1 2/2/1 5/2/1
f 7/2/1 4/2/1 3/2/1
f 8/2/1 4/2/1 7/2/1
f 13/2/1 10/2/1 9/2/1
f 14/2/1 10/2/1 13/2/1
f 15/2/1 12/2/1 11/2/1
f 16/2/1 12/2/1 15/2/1
f 21/2/1 18/2/1 17/2/1
f 22/2/1 18/2/1 21/2/1
f 23/2/1 20/2/1 19/2/1
f 24/2/1 20/2/1 23/2/1
f 33/1/1 28/1/1 27/1/1
f 34/1/1 28/1/1 33/1/1
f 35/1/1 30/1/1 29/1/1
f 36/1/1 30/1/1 35/1/1
f 37/2/1 26/2/1 25/2/1
f 38/2/1 26/2/1 37/2/1
f 39/2/1 32/2/1 31/2/1
f 40/2/1 32/2/1 39/2/1
f 47/2/1 44/2/1 43/2/1
f 48/2/1 44/2/1 47/2/1
f 49/2/1 42/2/1 41/2/1
f 50/2/1 42/2/1 49/2/1
f 51/2/1 46/2/1 45/2/1
f 52/2/1 46/2/1 51/2/1
f 57/2/1 54/2/1 53/2/1
f 58/2/1 54/2/1 57/2/1
f 59/2/1 56/2/1 55/2/1
f 60/2/1 56/2/1 59/2/1
f 65/2/1 62/2/1 61/2/1
f 66/2/1 62/2/1 65/2/1
f 67/2/1 64/2/1 63/2/1
f 68/2/1 64/2/1 67/2/1
f 73/2/1 70/2/1 69/2/1
f 74/2/1 70/2/1 73/2/1
f 75/2/1 72/2/1 71/2/1
f 76/2/1 72/2/1 75/2/1
f 82/2/1 78/2/1 77/2/1
f 82/2/1 79/2/1 78/2/1
f 83/2/1 79/2/1 82/2/1
f 84/2/1 81/2/1 80/2/1
f 85/2/1 81/2/1 84/2/1
f 88/2/1 87/2/1 86/2/1
f 89/2/1 87/2/1 88/2/1
f 90/2/2 91/2/2 94/2/2
f 94/2/2 91/2/2 95/2/2
f 92/2/2 93/2/2 96/2/2
f 96/2/2 93/2/2 97/2/2
f 98/2/2 99/2/2 102/2/2
f 102/2/2 99/2/2 103/2/2
f 100/2/2 101/2/2 104/2/2
f 104/2/2 101/2/2 105/2/2
f 106/2/2 107/2/2 110/2/2
f 110/2/2 107/2/2 111/2/2
f 108/2/2 109/2/2 112/2/2
f 112/2/2 109/2/2 113/2/2
f 114/2/2 115/2/2 118/2/2
f 118/2/2 115/2/2 119/2/2
f 116/2/2 117/2/2 120/2/2
f 120/2/2 117/2/2 121/2/2
f 122/2/2 123/2/2 126/2/2
f 126/2/2 123/2/2 127/2/2
f 124/2/2 125/2/2 128/2/2
f 128/2/2 125/2/2 129/2/2
f 130/2/2 131/2/2 134/2/2
f 134/2/2 131/2/2 135/2/2
f 132/2/2 133/2/2 136/2/2
f 136/2/2 133/2/2 137/2/2
f 138/2/2 139/2/2 142/2/2
f 142/2/2 139/2/2 143/2/2
f 140/2/2 141/2/2 144/2/2
f 144/2/2 141/2/2 145/2/2
f 146/2/2 147/2/2 150/2/2
f 150/2/2 147/2/2 151/2/2
f 148/2/2 149/2/2 152/2/2
f 152/2/2 149/2/2 153/2/2
f 154/2/2 155/2/2 158/2/2
f 158/2/2 155/2/2 159/2/2
f 156/2/2 157/2/2 160/2/2
f 160/2/2 157/2/2 161/2/2
f 162/2/2 163/2/2 164/2/2
f 164/2/2 163/2/2 165/2/2
f 168/2/3 167/2/3 166/2/3
f 169/2/3 167/2/3 168/2/3
f 172/2/3 171/2/3 170/2/3
f 173/2/3 171/2/3 172/2/3
f 176/2/3 175/2/3 174/2/3
f 177/2/3 175/2/3 176/2/3
f 180/2/3 179/2/3 178/2/3
f 181/2/3 179/2/3 180/2/3
f 184/2/3 183/2/3 182/2/3
f 185/2/3 183/2/3 184/2/3
f 188/2/3 187/2/3 186/2/3
f 189/2/3 187/2/3 188/2/3
f 192/2/3 191/2/3 190/2/3
f 193/2/3 191/2/3 192/2/3
f 196/2/3 195/2/3 194/2/3
f 197/2/3 195/2/3 196/2/3
f 200/2/3 199/2/3 198/2/3
f 201/2/3 199/2/3 200/2/3
f 204/2/3 203/2/3 202/2/3
f 205/2/3 203/2/3 204/2/3
f 208/1/3 207/1/3 206/1/3
f 209/1/3 207/1/3 208/1/3
f 210/2/3 209/2/3 208/2/3
f 211/2/3 209/2/3 210/2/3
f 214/2/3 213/2/3 212/2/3
f 215/2/3 213/2/3 214/2/3
f 216/2/3 213/2/3 215/2/3
f 217/1/3 215/1/3 214/1/3
f 218/1/3 215/1/3 217/1/3
f 221/2/3 220/2/3 219/2/3
f 222/2/3 220/2/3 221/2/3
f 225/2/3 224/2/3 223/2/3
f 226/2/3 224/2/3 225/2/3
f 229/2/3 228/2/3 227/2/3
f 230/2/3 228/2/3 229/2/3
f 233/2/3 232/2/3 231/2/3
f 234/2/3 232/2/3 233/2/3
f 237/2/3 236/2/3 235/2/3
f 238/2/3 236/2/3 237/2/3
f 241/2/3 240/2/3 239/2/3
f 242/2/3 240/2/3 241/2/3
f 245/2/3 244/2/3 243/2/3
f 246/2/3 244/2/3 245/2/3
f 249/2/3 248/2/3 247/2/3
f 250/2/3 248/2/3 249/2/3
f 251/2/4 252/2/4 253/2/4
f 253/2/4 252/2/4 254/2/4
f 255/2/4 256/2/4 257/2/4
f 257/2/4 256/2/4 258/2/4
f 259/2/4 260/2/4 261/2/4
f 261/2/4 260/2/4 262/2/4
f 263/2/4 264/2/4 265/2/4
f 265/2/4 264/2/4 266/2/4
f 267/2/4 268/2/4 269/2/4
f 269/2/4 268/2/4 270/2/4
f 271/2/4 272/2/4 273/2/4
f 273/2/4 272/2/4 274/2/4
f 275/2/4 276/2/4 277/2/4
f 277/2/4 276/2/4 278/2/4
f 279/2/4 280/2/4 281/2/4
f 281/2/4 280/2/4 282/2/4
f 282/2/4 280/2/4 283/2/4
f 281/1/4 282/1/4 284/1/4
f 284/1/4 282/1/4 285/1/4
f 286/2/4 287/2/4 288/2/4
f 288/2/4 287/2/4 289/2/4
f 290/1/4 291/1/4 292/1/4
f 292/1/4 291/1/4 293/1/4
f 292/2/4 293/2/4 294/2/4
f 294/2/4 293/2/4 295/2/4
f 296/2/4 297/2/4 298/2/4
f 298/2/4 297/2/4 299/2/4
f 300/2/4 301/2/4 302/2/4
f 302/2/4 301/2/4 303/2/4
f 304/2/4 305/2/4 306/2/4
f 306/2/4 305/2/4 307/2/4
f 308/2/4 309/2/4 310/2/4
f 310/2/4 309/2/4 311/2/4
f 312/2/4 313/2/4 314/2/4
f 314/2/4 313/2/4 315/2/4
f 316/2/4 317/2/4 318/2/4
f 318/2/4 317/2/4 319/2/4
f 320/2/4 321/2/4 322/2/4
f 322/2/4 321/2/4 323/2/4
f 324/2/4 325/2/4 326/2/4
f 326/2/4 325/2/4 327/2/4
f 328/2/4 329/2/4 330/2/4
f 330/2/4 329/2/4 331/2/4
f 332/2/4 333/2/4 334/2/4
f 334/2/4 333/2/4 335/2/4
f 339/2/5 337/2/5 336/2/5
f 340/2/5 337/2/5 339/2/5
f 343/2/5 339/2/5 338/2/5
f 344/1/5 340/1/5 339/1/5
f 344/2/5 339/2/5 343/2/5
f 345/1/5 340/1/5 344/1/5
f 346/2/5 341/2/5 340/2/5
f 346/1/5 340/1/5 345/1/5
f 347/2/5 341/2/5 346/2/5
f 350/2/5 343/2/5 342/2/5
f 351/2/5 345/2/5 344/2/5
f 351/1/5 344/1/5 343/1/5
f 352/2/5 345/2/5 351/2/5
f 353/2/5 348/2/5 347/2/5
f 353/1/5 346/1/5 345/1/5
f 353/1/5 347/1/5 346/1/5
f 354/2/5 348/2/5 353/2/5
f 357/2/5 350/2/5 349/2/5
f 358/2/5 343/2/5 350/2/5
f 358/1/5 352/1/5 351/1/5
f 358/2/5 350/2/5 357/2/5
f 358/1/5 351/1/5 343/1/5
f 359/1/5 352/1/5 358/1/5
f 360/2/5 345/2/5 352/2/5
f 360/1/5 354/1/5 353/1/5
f 360/1/5 353/1/5 345/1/5
f 361/1/5 354/1/5 360/1/5
f 362/1/5 354/1/5 361/1/5
f 363/2/5 355/2/5 354/2/5
f 363/1/5 354/1/5 362/1/5
f 364/2/5 355/2/5 363/2/5
f 366/1/5 352/1/5 359/1/5
f 366/2/5 360/2/5 352/2/5
f 366/2/5 361/2/5 360/2/5
f 367/2/5 361/2/5 366/2/5
f 368/1/5 364/1/5 363/1/5
f 368/2/5 363/2/5 362/2/5
f 369/2/5 365/2/5 364/2/5
f 369/1/5 364/1/5 368/1/5
f 370/2/5 357/2/5 356/2/5
f 371/1/5 358/1/5 357/1/5
f 371/2/5 357/2/5 370/2/5
f 372/2/5 359/2/5 358/2/5
f 372/1/5 358/1/5 371/1/5
f 373/1/5 367/1/5 366/1/5
f 373/2/5 359/2/5 372/2/5
f 373/1/5 366/1/5 359/1/5
f 374/1/5 367/1/5 373/1/5
f 375/2/5 368/2/5 362/2/5
f 375/2/5 369/2/5 368/2/5
f 376/2/5 365/2/5 369/2/5
f 376/2/5 369/2/5 375/2/5
f 378/1/5 373/1/5 372/1/5
f 379/2/5 374/2/5 373/2/5
f 379/1/5 373/1/5 378/1/5
f 380/1/5 367/1/5 374/1/5
f 380/2/5 374/2/5 379/2/5
f 381/2/5 361/2/5 367/2/5
f 381/1/5 367/1/5 380/1/5
f 382/1/5 362/1/5 361/1/5
f 382/2/5 361/2/5 381/2/5
f 383/2/5 375/2/5 362/2/5
f 383/1/5 362/1/5 382/1/5
f 386/2/5 381/2/5 380/2/5
f 386/2/5 382/2/5 381/2/5
f 386/2/5 383/2/5 382/2/5
f 387/2/5 383/2/5 386/2/5
f 388/2/5 383/2/5 387/2/5
f 389/2/5 383/2/5 388/2/5
f 390/2/5 375/2/5 383/2/5
f 390/2/5 383/2/5 389/2/5
f 391/1/5 376/1/5 375/1/5
f 391/2/5 375/2/5 390/2/5
f 394/1/5 385/1/5 384/1/5
f 395/2/5 386/2/5 385/2/5
f 395/1/5 385/1/5 394/1/5
f 396/1/5 389/1/5 388/1/5
f 396/2/5 388/2/5 387/2/5
f 397/1/5 389/1/5 396/1/5
f 398/2/5 390/2/5 389/2/5
f 398/1/5 391/1/5 390/1/5
f 399/1/5 376/1/5 391/1/5
f 399/1/5 391/1/5 398/1/5
f 400/1/5 376/1/5 399/1/5
f 401/2/5 377/2/5 376/2/5
f 401/1/5 376/1/5 400/1/5
f 402/2/5 377/2/5 401/2/5
f 403/2/5 386/2/5 395/2/5
f 403/2/5 395/2/5 394/2/5
f 404/1/5 387/1/5 386/1/5
f 404/2/5 386/2/5 403/2/5
f 405/2/5 397/2/5 396/2/5
f 405/1/5 387/1/5 404/1/5
f 405/2/5 396/2/5 387/2/5
f 406/2/5 397/2/5 405/2/5
f 407/1/5 389/1/5 397/1/5
f 407/2/5 398/2/5 389/2/5
f 407/2/5 399/2/5 398/2/5
f 408/2/5 399/2/5 407/2/5
f 409/2/5 393/2/5 392/2/5
f 410/1/5 394/1/5 393/1/5
f 410/2/5 393/2/5 409/2/5
f 411/1/5 394/1/5 410/1/5
f 412/2/5 403/2/5 394/2/5
f 412/1/5 394/1/5 411/1/5
f 413/1/5 404/1/5 403/1/5
f 413/2/5 403/2/5 412/2/5
f 413/1/5 406/1/5 405/1/5
f 413/1/5 405/1/5 404/1/5
f 414/1/5 406/1/5 413/1/5
f 415/2/5 397/2/5 406/2/5
f 415/1/5 406/1/5 414/1/5
f 416/2/5 399/2/5 408/2/5
f 416/1/5 408/1/5 407/1/5
f 417/1/5 400/1/5 399/1/5
f 417/2/5 399/2/5 416/2/5
f 418/2/5 401/2/5 400/2/5
f 418/1/5 400/1/5 417/1/5
f 419/2/5 401/2/5 418/2/5
f 420/2/5 411/2/5 410/2/5
f 421/1/5 414/1/5 413/1/5
f 421/2/5 411/2/5 420/2/5
f 421/1/5 412/1/5 411/1/5
f 421/1/5 413/1/5 412/1/5
f 422/1/5 414/1/5 421/1/5
f 423/2/5 397/2/5 415/2/5
f 423/2/5 415/2/5 414/2/5
f 424/1/5 416/1/5 407/1/5
f 424/2/5 397/2/5 423/2/5
f 424/1/5 417/1/5 416/1/5
f 424/1/5 407/1/5 397/1/5
f 425/1/5 417/1/5 424/1/5
f 426/2/5 418/2/5 417/2/5
f 426/1/5 417/1/5 425/1/5
f 427/2/5 418/2/5 426/2/5
f 428/2/5 422/2/5 421/2/5
f 429/1/5 414/1/5 422/1/5
f 429/2/5 422/2/5 428/2/5
f 430/1/5 414/1/5 429/1/5
f 431/2/5 423/2/5 414/2/5
f 431/1/5 414/1/5 430/1/5
f 432/1/5 425/1/5 424/1/5
f 432/2/5 423/2/5 431/2/5
f 432/1/5 424/1/5 423/1/5
f 433/1/5 425/1/5 432/1/5
f 434/2/5 426/2/5 425/2/5
f 434/1/5 425/1/5 433/1/5
f 435/2/5 426/2/5 434/2/5
f 436/2/5 430/2/5 429/2/5
f 437/1/5 433/1/5 432/1/5
f 437/2/5 430/2/5 436/2/5
f 437/1/5 431/1/5 430/1/5
f 437/1/5 432/1/5 431/1/5
f 438/2/5 434/2/5 433/2/5
f 438/1/5 433/1/5 437/1/5
f 439/2/5 434/2/5 438/2/5
f 440/2/5 438/2/5 437/2/5
f 441/2/5 438/2/5 440/2/5
f 442/1/6 443/1/6 445/1/6
f 445/1/6 443/1/6 446/1/6
f 446/1/6 443/1/6 447/1/6
f 444/1/6 445/1/6 450/1/6
f 445/2/6 446/2/6 451/2/6
f 450/1/6 445/1/6 451/1/6
f 451/2/6 446/2/6 452/2/6
f 447/1/6 448/1/6 453/1/6
f 446/1/6 447/1/6 453/1/6
f 449/2/6 450/2/6 456/2/6
f 451/1/6 452/1/6 457/1/6
f 450/1/6 451/1/6 457/1/6
f 456/2/6 450/2/6 457/2/6
f 457/1/6 452/1/6 458/1/6
f 452/2/6 446/2/6 459/2/6
f 453/1/6 454/1/6 459/1/6
f 446/1/6 453/1/6 459/1/6
f 459/1/6 454/1/6 460/1/6
f 460/1/6 454/1/6 461/1/6
f 461/1/6 454/1/6 462/1/6
f 458/1/6 452/1/6 464/1/6
f 452/2/6 459/2/6 464/2/6
f 459/2/6 460/2/6 464/2/6
f 464/2/6 460/2/6 465/2/6
f 462/1/6 463/1/6 466/1/6
f 461/2/6 462/2/6 466/2/6
f 466/1/6 463/1/6 467/1/6
f 455/1/6 456/1/6 468/1/6
f 456/1/6 457/1/6 468/1/6
f 457/2/6 458/2/6 469/2/6
f 468/1/6 457/1/6 469/1/6
f 464/1/6 465/1/6 470/1/6
f 469/2/6 458/2/6 470/2/6
f 458/1/6 464/1/6 470/1/6
f 470/1/6 465/1/6 471/1/6
f 466/2/6 467/2/6 472/2/6
f 461/2/6 466/2/6 472/2/6
f 472/2/6 467/2/6 473/2/6
f 469/1/6 470/1/6 475/1/6
f 470/2/6 471/2/6 476/2/6
f 475/1/6 470/1/6 476/1/6
f 471/1/6 465/1/6 477/1/6
f 476/2/6 471/2/6 477/2/6
f 465/2/6 460/2/6 478/2/6
f 477/1/6 465/1/6 478/1/6
f 460/1/6 461/1/6 479/1/6
f 478/2/6 460/2/6 479/2/6
f 461/2/6 472/2/6 480/2/6
f 479/1/6 461/1/6 480/1/6
f 479/2/6 480/2/6 483/2/6
f 477/2/6 478/2/6 483/2/6
f 478/2/6 479/2/6 483/2/6
f 483/2/6 480/2/6 484/2/6
f 484/2/6 480/2/6 485/2/6
f 485/2/6 480/2/6 486/2/6
f 480/2/6 472/2/6 487/2/6
f 486/2/6 480/2/6 487/2/6
f 472/1/6 473/1/6 488/1/6
f 487/2/6 472/2/6 488/2/6
f 473/1/6 474/1/6 488/1/6
f 481/1/6 482/1/6 490/1/6
f 482/2/6 483/2/6 491/2/6
f 490/1/6 482/1/6 491/1/6
f 485/1/6 486/1/6 492/1/6
f 484/2/6 485/2/6 492/2/6
f 492/1/6 486/1/6 493/1/6
f 486/2/6 487/2/6 494/2/6
f 487/1/6 488/1/6 494/1/6
f 488/1/6 474/1/6 495/1/6
f 494/1/6 488/1/6 495/1/6
f 495/1/6 474/1/6 496/1/6
f 496/1/6 474/1/6 497/1/6
f 491/2/6 483/2/6 498/2/6
f 490/2/6 491/2/6 498/2/6
f 483/1/6 484/1/6 499/1/6
f 498/2/6 483/2/6 499/2/6
f 492/2/6 493/2/6 500/2/6
f 499/1/6 484/1/6 500/1/6
f 484/2/6 492/2/6 500/2/6
f 500/2/6 493/2/6 501/2/6
f 493/1/6 486/1/6 502/1/6
f 486/2/6 494/2/6 502/2/6
f 494/2/6 495/2/6 502/2/6
f 502/2/6 495/2/6 503/2/6
f 489/1/6 490/1/6 504/1/6
f 504/1/6 490/1/6 505/1/6
f 490/2/6 498/2/6 506/2/6
f 505/1/6 490/1/6 506/1/6
f 500/1/6 501/1/6 507/1/6
f 506/2/6 498/2/6 507/2/6
f 498/1/6 499/1/6 507/1/6
f 499/1/6 500/1/6 507/1/6
f 507/1/6 501/1/6 508/1/6
f 501/2/6 493/2/6 509/2/6
f 508/1/6 501/1/6 509/1/6
f 503/2/6 495/2/6 510/2/6
f 502/1/6 503/1/6 510/1/6
f 495/1/6 496/1/6 511/1/6
f 510/2/6 495/2/6 511/2/6
f 511/1/6 496/1/6 512/1/6
f 507/1/6 508/1/6 513/1/6
f 505/1/6 506/1/6 513/1/6
f 506/1/6 507/1/6 513/1/6
f 513/1/6 508/1/6 514/1/6
f 509/2/6 493/2/6 515/2/6
f 508/2/6 509/2/6 515/2/6
f 510/1/6 511/1/6 516/1/6
f 515/2/6 493/2/6 516/2/6
f 502/1/6 510/1/6 516/1/6
f 493/1/6 502/1/6 516/1/6
f 516/1/6 511/1/6 517/1/6
f 517/1/6 511/1/6 518/1/6
f 514/1/6 508/1/6 519/1/6
f 519/1/6 508/1/6 520/1/6
f 508/2/6 515/2/6 521/2/6
f 520/1/6 508/1/6 521/1/6
f 516/1/6 517/1/6 522/1/6
f 521/2/6 515/2/6 522/2/6
f 515/1/6 516/1/6 522/1/6
f 522/1/6 517/1/6 523/1/6
f 523/1/6 517/1/6 524/1/6
f 520/1/6 521/1/6 525/1/6
f 522/1/6 523/1/6 525/1/6
f 521/1/6 522/1/6 525/1/6
f 525/1/6 523/1/6 526/1/6
f 527/2/6 528/2/6 530/2/6
f 530/2/6 528/2/6 531/2/6
f 529/2/6 530/2/6 534/2/6
f 534/2/6 530/2/6 535/2/6
f 531/2/6 532/2/6 536/2/6
f 536/2/6 532/2/6 537/2/6
f 533/2/6 534/2/6 540/2/6
f 540/2/6 534/2/6 541/2/6
f 537/2/6 538/2/6 542/2/6
f 542/2/6 538/2/6 543/2/6
f 539/2/6 540/2/6 546/2/6
f 546/2/6 540/2/6 547/2/6
f 543/2/6 544/2/6 548/2/6
f 548/2/6 544/2/6 549/2/6
f 545/2/6 546/2/6 551/2/6
f 551/2/6 546/2/6 552/2/6
f 549/2/6 550/2/6 553/2/6
f 553/2/6 550/2/6 554/2/6
f 554/2/6 555/2/6 559/2/6
f 559/2/6 555/2/6 560/2/6
f 556/2/6 557/2/6 561/2/6
f 561/2/6 557/2/6 562/2/6
f 558/2/6 559/2/6 565/2/6
f 565/2/6 559/2/6 566/2/6
f 562/2/6 563/2/6 567/2/6
f 567/2/6 563/2/6 568/2/6
f 564/2/6 565/2/6 571/2/6
f 571/2/6 565/2/6 572/2/6
f 568/2/6 569/2/6 573/2/6
f 573/2/6 569/2/6 574/2/6
f 570/2/6 571/2/6 577/2/6
f 577/2/6 571/2/6 578/2/6
f 574/2/6 575/2/6 579/2/6
f 579/2/6 575/2/6 580/2/6
f 576/2/6 577/2/6 581/2/6
f 581/2/6 577/2/6 582/2/6
f 580/2/6 581/2/6 583/2/6
f 583/2/6 581/2/6 584/2/6
