# MagicaVoxel @ Ephtracy

# group
o 

# material
mtllib fish prototype.mtl
usemtl palette

# normals
vn -1 0 0
vn 1 0 0
vn 0 0 1
vn 0 0 -1
vn 0 -1 0
vn 0 1 0

# texcoords
vt 0.0878906 0.5
vt 0.845703 0.5
vt 0.958984 0.5
vt 0.994141 0.5

# verts
v -0.4 0.6 0.1
v -0.4 0.6 0
v -0.4 0.7 0.3
v -0.4 0.7 0.1
v -0.4 0.7 0
v -0.4 0.7 -0.2
v -0.4 0.7 -0.3
v -0.4 0.8 0.5
v -0.4 0.8 0.4
v -0.4 0.8 0.3
v -0.4 0.8 0.1
v -0.4 0.8 0
v -0.4 0.8 -0.1
v -0.4 0.8 -0.2
v -0.4 0.8 -0.3
v -0.4 0.9 0.5
v -0.4 0.9 0.4
v -0.4 0.9 0.3
v -0.4 0.9 0.1
v -0.4 1 0.3
v -0.4 1 0.2
v -0.4 1 0
v -0.4 1 -0.1
v -0.4 1.1 0.2
v -0.4 1.1 0
v -0.3 0.3 0.3
v -0.3 0.3 0.2
v -0.3 0.4 0.4
v -0.3 0.4 0.3
v -0.3 0.4 0.1
v -0.3 0.4 0
v -0.3 0.6 0.2
v -0.3 0.6 0.1
v -0.3 0.6 0
v -0.3 0.7 0.6
v -0.3 0.7 0.4
v -0.3 0.7 0.3
v -0.3 0.7 0.2
v -0.3 0.7 0.1
v -0.3 0.7 -0.3
v -0.3 0.7 -0.4
v -0.3 0.8 0.5
v -0.3 0.8 0.4
v -0.3 0.8 0.3
v -0.3 0.8 -0.1
v -0.3 0.8 -0.2
v -0.3 0.8 -0.3
v -0.3 0.8 -0.4
v -0.3 0.9 0.6
v -0.3 0.9 0.5
v -0.3 0.9 0.4
v -0.3 0.9 0.3
v -0.3 0.9 -0.1
v -0.3 0.9 -0.2
v -0.3 0.9 -0.3
v -0.3 1 0.5
v -0.3 1 0.3
v -0.3 1 0.2
v -0.3 1 0
v -0.3 1 -0.1
v -0.3 1.1 0.3
v -0.3 1.1 0.2
v -0.3 1.1 0
v -0.3 1.1 -0.1
v -0.3 1.2 0.2
v -0.3 1.2 0
v -0.2 0.5 0.2
v -0.2 0.5 0.1
v -0.2 0.5 -0.3
v -0.2 0.5 -0.5
v -0.2 0.6 0.6
v -0.2 0.6 0.4
v -0.2 0.6 0.2
v -0.2 0.6 0.1
v -0.2 0.6 0
v -0.2 0.6 -0.1
v -0.2 0.6 -0.2
v -0.2 0.6 -0.3
v -0.2 0.6 -0.4
v -0.2 0.6 -0.5
v -0.2 0.7 0.7
v -0.2 0.7 0.6
v -0.2 0.7 0.4
v -0.2 0.7 0
v -0.2 0.7 -0.1
v -0.2 0.7 -0.2
v -0.2 0.7 -0.4
v -0.2 0.8 -0.3
v -0.2 0.8 -0.4
v -0.2 0.9 0.7
v -0.2 0.9 0.6
v -0.2 0.9 0.5
v -0.2 0.9 -0.2
v -0.2 0.9 -0.3
v -0.2 1 0.6
v -0.2 1 0.5
v -0.2 1 0.3
v -0.2 1 -0.2
v -0.2 1 -0.3
v -0.2 1 -0.4
v -0.2 1.1 0.5
v -0.2 1.1 0.3
v -0.2 1.1 0.2
v -0.2 1.1 0
v -0.2 1.1 -0.1
v -0.2 1.1 -0.3
v -0.2 1.1 -0.4
v -0.2 1.2 0.3
v -0.2 1.2 0.2
v -0.2 1.2 0
v -0.2 1.2 -0.1
v -0.2 1.3 0.2
v -0.2 1.3 0
v -0.1 0.4 -0.4
v -0.1 0.4 -0.6
v -0.1 0.5 -0.4
v -0.1 0.5 -0.5
v -0.1 0.5 -0.6
v -0.1 1 -0.4
v -0.1 1 -0.5
v -0.1 1.1 -0.4
v -0.1 1.1 -0.5
v -0.1 1.1 -0.6
v -0.1 1.2 -0.4
v -0.1 1.2 -0.6
v 0.1 0.3 0.3
v 0.1 0.3 0.2
v 0.1 0.4 0.4
v 0.1 0.4 0.3
v 0.1 0.4 0.1
v 0.1 0.4 0
v 0.1 0.5 0.4
v 0.1 0.5 0.2
v 0.1 0.5 0.1
v 0.1 0.5 0
v -0.2 0.3 0.3
v -0.2 0.3 0.2
v -0.2 0.4 0.4
v -0.2 0.4 0.3
v -0.2 0.4 0.1
v -0.2 0.4 0
v -0.2 0.5 0.4
v -0.2 0.5 0.2
v -0.2 0.5 0.1
v -0.2 0.5 0
v 0 0.4 -0.4
v 0 0.4 -0.6
v 0 0.5 -0.4
v 0 0.5 -0.5
v 0 0.5 -0.6
v 0 1 -0.4
v 0 1 -0.5
v 0 1.1 -0.4
v 0 1.1 -0.5
v 0 1.1 -0.6
v 0 1.2 -0.4
v 0 1.2 -0.6
v 0.1 0.5 0.2
v 0.1 0.5 0.1
v 0.1 0.5 -0.3
v 0.1 0.5 -0.5
v 0.1 0.6 0.6
v 0.1 0.6 0.4
v 0.1 0.6 0.2
v 0.1 0.6 0.1
v 0.1 0.6 0
v 0.1 0.6 -0.1
v 0.1 0.6 -0.2
v 0.1 0.6 -0.3
v 0.1 0.6 -0.4
v 0.1 0.6 -0.5
v 0.1 0.7 0.7
v 0.1 0.7 0.6
v 0.1 0.7 0.4
v 0.1 0.7 0
v 0.1 0.7 -0.1
v 0.1 0.7 -0.2
v 0.1 0.7 -0.4
v 0.1 0.8 -0.3
v 0.1 0.8 -0.4
v 0.1 0.9 0.7
v 0.1 0.9 0.6
v 0.1 0.9 0.5
v 0.1 0.9 -0.2
v 0.1 0.9 -0.3
v 0.1 1 0.6
v 0.1 1 0.5
v 0.1 1 0.3
v 0.1 1 -0.2
v 0.1 1 -0.3
v 0.1 1 -0.4
v 0.1 1.1 0.5
v 0.1 1.1 0.3
v 0.1 1.1 0.2
v 0.1 1.1 0
v 0.1 1.1 -0.1
v 0.1 1.1 -0.3
v 0.1 1.1 -0.4
v 0.1 1.2 0.3
v 0.1 1.2 0.2
v 0.1 1.2 0
v 0.1 1.2 -0.1
v 0.1 1.3 0.2
v 0.1 1.3 0
v 0.2 0.3 0.3
v 0.2 0.3 0.2
v 0.2 0.4 0.4
v 0.2 0.4 0.3
v 0.2 0.4 0.1
v 0.2 0.4 0
v 0.2 0.6 0.2
v 0.2 0.6 0.1
v 0.2 0.6 0
v 0.2 0.7 0.6
v 0.2 0.7 0.4
v 0.2 0.7 0.3
v 0.2 0.7 0.2
v 0.2 0.7 0.1
v 0.2 0.7 -0.2
v 0.2 0.7 -0.4
v 0.2 0.8 0.5
v 0.2 0.8 0.4
v 0.2 0.8 0.3
v 0.2 0.8 -0.1
v 0.2 0.8 -0.2
v 0.2 0.8 -0.3
v 0.2 0.8 -0.4
v 0.2 0.9 0.6
v 0.2 0.9 0.5
v 0.2 0.9 0.4
v 0.2 0.9 0.3
v 0.2 0.9 -0.1
v 0.2 0.9 -0.2
v 0.2 0.9 -0.3
v 0.2 1 0.5
v 0.2 1 0.3
v 0.2 1 0.2
v 0.2 1 0
v 0.2 1 -0.1
v 0.2 1.1 0.3
v 0.2 1.1 0.2
v 0.2 1.1 0
v 0.2 1.1 -0.1
v 0.2 1.2 0.2
v 0.2 1.2 0
v 0.3 0.6 0.1
v 0.3 0.6 0
v 0.3 0.7 0.3
v 0.3 0.7 0.1
v 0.3 0.7 0
v 0.3 0.7 -0.2
v 0.3 0.8 0.5
v 0.3 0.8 0.4
v 0.3 0.8 0.3
v 0.3 0.8 0.1
v 0.3 0.8 0
v 0.3 0.8 -0.1
v 0.3 0.8 -0.2
v 0.3 0.9 0.5
v 0.3 0.9 0.4
v 0.3 0.9 0.3
v 0.3 0.9 0.1
v 0.3 1 0.3
v 0.3 1 0.2
v 0.3 1 0
v 0.3 1 -0.1
v 0.3 1.1 0.2
v 0.3 1.1 0
v -0.2 0.7 0.7
v -0.2 0.9 0.7
v 0.1 0.7 0.7
v 0.1 0.9 0.7
v -0.3 0.7 0.6
v -0.3 0.9 0.6
v -0.2 0.6 0.6
v -0.2 0.7 0.6
v -0.2 0.9 0.6
v -0.2 1 0.6
v 0.1 0.6 0.6
v 0.1 0.7 0.6
v 0.1 0.9 0.6
v 0.1 1 0.6
v 0.2 0.7 0.6
v 0.2 0.9 0.6
v -0.4 0.8 0.5
v -0.4 0.9 0.5
v -0.3 0.8 0.5
v -0.3 0.9 0.5
v -0.3 1 0.5
v -0.2 0.9 0.5
v -0.2 1 0.5
v -0.2 1.1 0.5
v 0.1 0.9 0.5
v 0.1 1 0.5
v 0.1 1.1 0.5
v 0.2 0.8 0.5
v 0.2 0.9 0.5
v 0.2 1 0.5
v 0.3 0.8 0.5
v 0.3 0.9 0.5
v -0.3 0.4 0.4
v -0.3 0.7 0.4
v -0.2 0.4 0.4
v -0.2 0.5 0.4
v -0.2 0.6 0.4
v -0.2 0.7 0.4
v 0.1 0.4 0.4
v 0.1 0.5 0.4
v 0.1 0.6 0.4
v 0.1 0.7 0.4
v 0.2 0.4 0.4
v 0.2 0.7 0.4
v -0.4 0.7 0.3
v -0.4 0.8 0.3
v -0.4 0.9 0.3
v -0.4 1 0.3
v -0.3 0.3 0.3
v -0.3 0.4 0.3
v -0.3 0.7 0.3
v -0.3 0.8 0.3
v -0.3 0.9 0.3
v -0.3 1 0.3
v -0.3 1.1 0.3
v -0.2 0.3 0.3
v -0.2 0.4 0.3
v -0.2 1 0.3
v -0.2 1.1 0.3
v -0.2 1.2 0.3
v 0.1 0.3 0.3
v 0.1 0.4 0.3
v 0.1 1 0.3
v 0.1 1.1 0.3
v 0.1 1.2 0.3
v 0.2 0.3 0.3
v 0.2 0.4 0.3
v 0.2 0.7 0.3
v 0.2 0.8 0.3
v 0.2 0.9 0.3
v 0.2 1 0.3
v 0.2 1.1 0.3
v 0.3 0.7 0.3
v 0.3 0.8 0.3
v 0.3 0.9 0.3
v 0.3 1 0.3
v -0.4 1 0.2
v -0.4 1.1 0.2
v -0.3 1 0.2
v -0.3 1.1 0.2
v -0.3 1.2 0.2
v -0.2 1.1 0.2
v -0.2 1.2 0.2
v -0.2 1.3 0.2
v 0.1 1.1 0.2
v 0.1 1.2 0.2
v 0.1 1.3 0.2
v 0.2 1 0.2
v 0.2 1.1 0.2
v 0.2 1.2 0.2
v 0.3 1 0.2
v 0.3 1.1 0.2
v -0.4 0.6 0.1
v -0.4 0.7 0.1
v -0.3 0.4 0.1
v -0.3 0.6 0.1
v -0.3 0.7 0.1
v -0.2 0.4 0.1
v -0.2 0.5 0.1
v -0.2 0.6 0.1
v 0.1 0.4 0.1
v 0.1 0.5 0.1
v 0.1 0.6 0.1
v 0.2 0.4 0.1
v 0.2 0.6 0.1
v 0.2 0.7 0.1
v 0.3 0.6 0.1
v 0.3 0.7 0.1
v -0.2 0.6 -0.2
v -0.2 0.7 -0.2
v -0.2 0.9 -0.2
v -0.2 1 -0.2
v 0.1 0.6 -0.2
v 0.1 0.7 -0.2
v 0.1 0.9 -0.2
v 0.1 1 -0.2
v -0.2 0.5 -0.3
v -0.2 0.6 -0.3
v -0.2 1 -0.3
v -0.2 1.1 -0.3
v 0.1 0.5 -0.3
v 0.1 0.6 -0.3
v 0.1 1 -0.3
v 0.1 1.1 -0.3
v -0.1 0.4 -0.4
v -0.1 0.5 -0.4
v -0.1 1.1 -0.4
v -0.1 1.2 -0.4
v 0 0.4 -0.4
v 0 0.5 -0.4
v 0 1.1 -0.4
v 0 1.2 -0.4
v -0.3 0.3 0.2
v -0.3 0.6 0.2
v -0.2 0.3 0.2
v -0.2 0.5 0.2
v -0.2 0.6 0.2
v 0.1 0.3 0.2
v 0.1 0.5 0.2
v 0.1 0.6 0.2
v 0.2 0.3 0.2
v 0.2 0.6 0.2
v -0.4 0.6 0
v -0.4 0.7 0
v -0.4 1 0
v -0.4 1.1 0
v -0.3 0.4 0
v -0.3 0.6 0
v -0.3 0.7 0
v -0.3 1 0
v -0.3 1.1 0
v -0.3 1.2 0
v -0.2 0.4 0
v -0.2 0.5 0
v -0.2 0.6 0
v -0.2 0.7 0
v -0.2 1.1 0
v -0.2 1.2 0
v -0.2 1.3 0
v 0.1 0.4 0
v 0.1 0.5 0
v 0.1 0.6 0
v 0.1 0.7 0
v 0.1 1.1 0
v 0.1 1.2 0
v 0.1 1.3 0
v 0.2 0.4 0
v 0.2 0.6 0
v 0.2 0.7 0
v 0.2 1 0
v 0.2 1.1 0
v 0.2 1.2 0
v 0.3 0.6 0
v 0.3 0.7 0
v 0.3 1 0
v 0.3 1.1 0
v -0.4 0.8 -0.1
v -0.4 1 -0.1
v -0.3 0.8 -0.1
v -0.3 0.9 -0.1
v -0.3 1 -0.1
v -0.3 1.1 -0.1
v -0.2 0.6 -0.1
v -0.2 0.7 -0.1
v -0.2 1.1 -0.1
v -0.2 1.2 -0.1
v 0.1 0.6 -0.1
v 0.1 0.7 -0.1
v 0.1 1.1 -0.1
v 0.1 1.2 -0.1
v 0.2 0.8 -0.1
v 0.2 0.9 -0.1
v 0.2 1 -0.1
v 0.2 1.1 -0.1
v 0.3 0.8 -0.1
v 0.3 1 -0.1
v 0.2 0.7 -0.2
v 0.2 0.8 -0.2
v 0.3 0.7 -0.2
v 0.3 0.8 -0.2
v -0.4 0.7 -0.3
v -0.4 0.8 -0.3
v -0.3 0.7 -0.3
v -0.3 0.8 -0.3
v -0.3 0.9 -0.3
v -0.2 0.8 -0.3
v -0.2 0.9 -0.3
v 0.1 0.8 -0.3
v 0.1 0.9 -0.3
v 0.2 0.8 -0.3
v 0.2 0.9 -0.3
v -0.3 0.7 -0.4
v -0.3 0.8 -0.4
v -0.2 0.6 -0.4
v -0.2 0.7 -0.4
v -0.2 0.8 -0.4
v -0.2 1 -0.4
v -0.2 1.1 -0.4
v -0.1 1 -0.4
v -0.1 1.1 -0.4
v 0 1 -0.4
v 0 1.1 -0.4
v 0.1 0.6 -0.4
v 0.1 0.7 -0.4
v 0.1 0.8 -0.4
v 0.1 1 -0.4
v 0.1 1.1 -0.4
v 0.2 0.7 -0.4
v 0.2 0.8 -0.4
v -0.2 0.5 -0.5
v -0.2 0.6 -0.5
v -0.1 0.5 -0.5
v -0.1 1 -0.5
v -0.1 1.1 -0.5
v 0 0.5 -0.5
v 0 1 -0.5
v 0 1.1 -0.5
v 0.1 0.5 -0.5
v 0.1 0.6 -0.5
v -0.1 0.4 -0.6
v -0.1 0.5 -0.6
v -0.1 1.1 -0.6
v -0.1 1.2 -0.6
v 0 0.4 -0.6
v 0 0.5 -0.6
v 0 1.1 -0.6
v 0 1.2 -0.6
v -0.3 0.3 0.3
v -0.2 0.3 0.3
v 0.1 0.3 0.3
v 0.2 0.3 0.3
v -0.3 0.3 0.2
v -0.2 0.3 0.2
v 0.1 0.3 0.2
v 0.2 0.3 0.2
v -0.3 0.4 0.4
v -0.2 0.4 0.4
v 0.1 0.4 0.4
v 0.2 0.4 0.4
v -0.3 0.4 0.3
v -0.2 0.4 0.3
v 0.1 0.4 0.3
v 0.2 0.4 0.3
v -0.3 0.4 0.1
v -0.2 0.4 0.1
v 0.1 0.4 0.1
v 0.2 0.4 0.1
v -0.3 0.4 0
v -0.2 0.4 0
v 0.1 0.4 0
v 0.2 0.4 0
v -0.1 0.4 -0.4
v 0 0.4 -0.4
v -0.1 0.4 -0.6
v 0 0.4 -0.6
v -0.2 0.5 0.4
v 0.1 0.5 0.4
v -0.2 0.5 0.2
v 0.1 0.5 0.2
v -0.2 0.5 0.1
v 0.1 0.5 0.1
v -0.2 0.5 0
v 0.1 0.5 0
v -0.2 0.5 -0.3
v 0.1 0.5 -0.3
v -0.1 0.5 -0.4
v 0 0.5 -0.4
v -0.2 0.5 -0.5
v -0.1 0.5 -0.5
v 0 0.5 -0.5
v 0.1 0.5 -0.5
v -0.2 0.6 0.6
v 0.1 0.6 0.6
v -0.2 0.6 0.4
v 0.1 0.6 0.4
v -0.3 0.6 0.2
v -0.2 0.6 0.2
v 0.1 0.6 0.2
v 0.2 0.6 0.2
v -0.4 0.6 0.1
v -0.3 0.6 0.1
v -0.2 0.6 0.1
v 0.1 0.6 0.1
v 0.2 0.6 0.1
v 0.3 0.6 0.1
v -0.4 0.6 0
v -0.3 0.6 0
v -0.2 0.6 0
v 0.1 0.6 0
v 0.2 0.6 0
v 0.3 0.6 0
v -0.2 0.6 -0.1
v 0.1 0.6 -0.1
v -0.2 0.6 -0.2
v 0.1 0.6 -0.2
v -0.2 0.6 -0.3
v 0.1 0.6 -0.3
v -0.2 0.7 0.7
v 0.1 0.7 0.7
v -0.3 0.7 0.6
v -0.2 0.7 0.6
v 0.1 0.7 0.6
v 0.2 0.7 0.6
v -0.3 0.7 0.4
v -0.2 0.7 0.4
v 0.1 0.7 0.4
v 0.2 0.7 0.4
v -0.4 0.7 0.3
v -0.3 0.7 0.3
v 0.2 0.7 0.3
v 0.3 0.7 0.3
v -0.3 0.7 0.2
v 0.2 0.7 0.2
v -0.4 0.7 0.1
v -0.3 0.7 0.1
v 0.2 0.7 0.1
v 0.3 0.7 0.1
v -0.4 0.7 0
v -0.3 0.7 0
v -0.2 0.7 0
v 0.1 0.7 0
v 0.2 0.7 0
v 0.3 0.7 0
v -0.2 0.7 -0.1
v 0.1 0.7 -0.1
v -0.4 0.7 -0.2
v -0.3 0.7 -0.2
v -0.2 0.7 -0.2
v 0.1 0.7 -0.2
v 0.2 0.7 -0.2
v 0.3 0.7 -0.2
v -0.4 0.7 -0.3
v -0.3 0.7 -0.3
v -0.3 0.7 -0.4
v -0.2 0.7 -0.4
v 0.1 0.7 -0.4
v 0.2 0.7 -0.4
v -0.4 0.8 0.5
v -0.3 0.8 0.5
v 0.2 0.8 0.5
v 0.3 0.8 0.5
v -0.4 0.8 0.4
v -0.3 0.8 0.4
v 0.2 0.8 0.4
v 0.3 0.8 0.4
v -0.4 0.8 0.3
v -0.3 0.8 0.3
v 0.2 0.8 0.3
v 0.3 0.8 0.3
v -0.1 1 -0.4
v 0 1 -0.4
v -0.1 1 -0.5
v 0 1 -0.5
v -0.1 1.1 -0.5
v 0 1.1 -0.5
v -0.1 1.1 -0.6
v 0 1.1 -0.6
v -0.1 0.5 -0.5
v 0 0.5 -0.5
v -0.1 0.5 -0.6
v 0 0.5 -0.6
v -0.2 0.6 -0.4
v 0.1 0.6 -0.4
v -0.2 0.6 -0.5
v 0.1 0.6 -0.5
v -0.4 0.8 -0.1
v -0.3 0.8 -0.1
v 0.2 0.8 -0.1
v 0.3 0.8 -0.1
v -0.4 0.8 -0.2
v -0.3 0.8 -0.2
v 0.2 0.8 -0.2
v 0.3 0.8 -0.2
v -0.4 0.8 -0.3
v -0.3 0.8 -0.3
v -0.2 0.8 -0.3
v 0.1 0.8 -0.3
v 0.2 0.8 -0.3
v -0.3 0.8 -0.4
v -0.2 0.8 -0.4
v 0.1 0.8 -0.4
v 0.2 0.8 -0.4
v -0.2 0.9 0.7
v 0.1 0.9 0.7
v -0.3 0.9 0.6
v -0.2 0.9 0.6
v 0.1 0.9 0.6
v 0.2 0.9 0.6
v -0.4 0.9 0.5
v -0.3 0.9 0.5
v -0.2 0.9 0.5
v 0.1 0.9 0.5
v 0.2 0.9 0.5
v 0.3 0.9 0.5
v -0.4 0.9 0.4
v -0.3 0.9 0.4
v 0.2 0.9 0.4
v 0.3 0.9 0.4
v -0.4 0.9 0.3
v -0.3 0.9 0.3
v 0.2 0.9 0.3
v 0.3 0.9 0.3
v -0.3 0.9 -0.1
v 0.2 0.9 -0.1
v -0.3 0.9 -0.2
v -0.2 0.9 -0.2
v 0.1 0.9 -0.2
v 0.2 0.9 -0.2
v -0.3 0.9 -0.3
v -0.2 0.9 -0.3
v 0.1 0.9 -0.3
v 0.2 0.9 -0.3
v -0.2 1 0.6
v 0.1 1 0.6
v -0.3 1 0.5
v -0.2 1 0.5
v 0.1 1 0.5
v 0.2 1 0.5
v -0.4 1 0.3
v -0.3 1 0.3
v -0.2 1 0.3
v 0.1 1 0.3
v 0.2 1 0.3
v 0.3 1 0.3
v -0.4 1 0.2
v -0.3 1 0.2
v 0.2 1 0.2
v 0.3 1 0.2
v -0.4 1 0
v -0.3 1 0
v 0.2 1 0
v 0.3 1 0
v -0.4 1 -0.1
v -0.3 1 -0.1
v 0.2 1 -0.1
v 0.3 1 -0.1
v -0.2 1 -0.2
v 0.1 1 -0.2
v -0.2 1 -0.3
v 0.1 1 -0.3
v -0.2 1.1 0.5
v 0.1 1.1 0.5
v -0.3 1.1 0.3
v -0.2 1.1 0.3
v 0.1 1.1 0.3
v 0.2 1.1 0.3
v -0.4 1.1 0.2
v -0.3 1.1 0.2
v -0.2 1.1 0.2
v 0.1 1.1 0.2
v 0.2 1.1 0.2
v 0.3 1.1 0.2
v -0.4 1.1 0
v -0.3 1.1 0
v -0.2 1.1 0
v 0.1 1.1 0
v 0.2 1.1 0
v 0.3 1.1 0
v -0.3 1.1 -0.1
v -0.2 1.1 -0.1
v 0.1 1.1 -0.1
v 0.2 1.1 -0.1
v -0.2 1.1 -0.3
v 0.1 1.1 -0.3
v -0.2 1.1 -0.4
v -0.1 1.1 -0.4
v 0 1.1 -0.4
v 0.1 1.1 -0.4
v -0.2 1.2 0.3
v 0.1 1.2 0.3
v -0.3 1.2 0.2
v -0.2 1.2 0.2
v 0.1 1.2 0.2
v 0.2 1.2 0.2
v -0.3 1.2 0
v -0.2 1.2 0
v 0.1 1.2 0
v 0.2 1.2 0
v -0.2 1.2 -0.1
v 0.1 1.2 -0.1
v -0.1 1.2 -0.4
v 0 1.2 -0.4
v -0.1 1.2 -0.6
v 0 1.2 -0.6
v -0.2 1.3 0.2
v 0.1 1.3 0.2
v -0.2 1.3 0
v 0.1 1.3 0

# faces
f 4/1/1 2/1/1 1/1/1
f 5/1/1 2/1/1 4/1/1
f 10/1/1 4/1/1 3/1/1
f 10/1/1 5/1/1 4/1/1
f 11/1/1 5/1/1 10/1/1
f 12/2/1 6/2/1 5/2/1
f 12/1/1 5/1/1 11/1/1
f 13/2/1 6/2/1 12/2/1
f 14/1/1 7/1/1 6/1/1
f 14/2/1 6/2/1 13/2/1
f 15/1/1 7/1/1 14/1/1
f 16/4/1 9/4/1 8/4/1
f 17/1/1 11/1/1 10/1/1
f 17/4/1 9/4/1 16/4/1
f 17/1/1 10/1/1 9/1/1
f 18/1/1 11/1/1 17/1/1
f 19/2/1 13/2/1 12/2/1
f 19/1/1 11/1/1 18/1/1
f 19/2/1 12/2/1 11/2/1
f 20/2/1 19/2/1 18/2/1
f 21/2/1 19/2/1 20/2/1
f 22/2/1 13/2/1 19/2/1
f 22/2/1 19/2/1 21/2/1
f 23/2/1 13/2/1 22/2/1
f 24/2/1 22/2/1 21/2/1
f 25/2/1 22/2/1 24/2/1
f 29/3/1 27/3/1 26/3/1
f 32/3/1 27/3/1 29/3/1
f 32/3/1 29/3/1 28/3/1
f 33/3/1 31/3/1 30/3/1
f 34/3/1 31/3/1 33/3/1
f 36/3/1 32/3/1 28/3/1
f 37/3/1 32/3/1 36/3/1
f 38/1/1 33/1/1 32/1/1
f 38/3/1 32/3/1 37/3/1
f 39/1/1 33/1/1 38/1/1
f 42/2/1 36/2/1 35/2/1
f 43/3/1 37/3/1 36/3/1
f 43/2/1 36/2/1 42/2/1
f 44/3/1 37/3/1 43/3/1
f 47/1/1 41/1/1 40/1/1
f 48/1/1 41/1/1 47/1/1
f 49/2/1 42/2/1 35/2/1
f 50/2/1 42/2/1 49/2/1
f 53/2/1 46/2/1 45/2/1
f 54/1/1 47/1/1 46/1/1
f 54/2/1 46/2/1 53/2/1
f 55/1/1 47/1/1 54/1/1
f 56/2/1 52/2/1 51/2/1
f 56/2/1 51/2/1 50/2/1
f 57/2/1 52/2/1 56/2/1
f 61/2/1 58/2/1 57/2/1
f 62/2/1 58/2/1 61/2/1
f 63/2/1 60/2/1 59/2/1
f 64/2/1 60/2/1 63/2/1
f 65/2/1 63/2/1 62/2/1
f 66/2/1 63/2/1 65/2/1
f 73/1/1 68/1/1 67/1/1
f 74/1/1 68/1/1 73/1/1
f 78/3/1 70/3/1 69/3/1
f 79/3/1 70/3/1 78/3/1
f 80/3/1 70/3/1 79/3/1
f 82/1/1 72/1/1 71/1/1
f 83/1/1 72/1/1 82/1/1
f 84/1/1 76/1/1 75/1/1
f 85/1/1 76/1/1 84/1/1
f 86/1/1 79/1/1 78/1/1
f 86/1/1 78/1/1 77/1/1
f 87/1/1 79/1/1 86/1/1
f 90/2/1 82/2/1 81/2/1
f 91/2/1 82/2/1 90/2/1
f 94/1/1 89/1/1 88/1/1
f 95/2/1 92/2/1 91/2/1
f 96/2/1 92/2/1 95/2/1
f 98/1/1 94/1/1 93/1/1
f 99/1/1 89/1/1 94/1/1
f 99/1/1 94/1/1 98/1/1
f 100/1/1 89/1/1 99/1/1
f 101/2/1 97/2/1 96/2/1
f 102/2/1 97/2/1 101/2/1
f 106/3/1 100/3/1 99/3/1
f 107/3/1 100/3/1 106/3/1
f 108/2/1 103/2/1 102/2/1
f 109/2/1 103/2/1 108/2/1
f 110/2/1 105/2/1 104/2/1
f 111/2/1 105/2/1 110/2/1
f 112/2/1 110/2/1 109/2/1
f 113/2/1 110/2/1 112/2/1
f 116/3/1 115/3/1 114/3/1
f 117/3/1 115/3/1 116/3/1
f 118/3/1 115/3/1 117/3/1
f 121/3/1 120/3/1 119/3/1
f 122/3/1 120/3/1 121/3/1
f 124/3/1 122/3/1 121/3/1
f 124/3/1 123/3/1 122/3/1
f 125/3/1 123/3/1 124/3/1
f 129/3/1 127/3/1 126/3/1
f 132/3/1 129/3/1 128/3/1
f 133/3/1 127/3/1 129/3/1
f 133/3/1 129/3/1 132/3/1
f 134/3/1 131/3/1 130/3/1
f 135/3/1 131/3/1 134/3/1
f 136/3/2 137/3/2 139/3/2
f 138/3/2 139/3/2 142/3/2
f 139/3/2 137/3/2 143/3/2
f 142/3/2 139/3/2 143/3/2
f 140/3/2 141/3/2 144/3/2
f 144/3/2 141/3/2 145/3/2
f 146/3/2 147/3/2 148/3/2
f 148/3/2 147/3/2 149/3/2
f 149/3/2 147/3/2 150/3/2
f 151/3/2 152/3/2 153/3/2
f 153/3/2 152/3/2 154/3/2
f 153/3/2 154/3/2 156/3/2
f 154/3/2 155/3/2 156/3/2
f 156/3/2 155/3/2 157/3/2
f 158/1/2 159/1/2 164/1/2
f 164/1/2 159/1/2 165/1/2
f 160/3/2 161/3/2 169/3/2
f 169/3/2 161/3/2 170/3/2
f 170/3/2 161/3/2 171/3/2
f 162/1/2 163/1/2 173/1/2
f 173/1/2 163/1/2 174/1/2
f 166/1/2 167/1/2 175/1/2
f 175/1/2 167/1/2 176/1/2
f 169/1/2 170/1/2 177/1/2
f 168/1/2 169/1/2 177/1/2
f 177/1/2 170/1/2 178/1/2
f 172/2/2 173/2/2 181/2/2
f 181/2/2 173/2/2 182/2/2
f 179/1/2 180/1/2 185/1/2
f 182/2/2 183/2/2 186/2/2
f 186/2/2 183/2/2 187/2/2
f 184/1/2 185/1/2 189/1/2
f 185/1/2 180/1/2 190/1/2
f 189/1/2 185/1/2 190/1/2
f 190/1/2 180/1/2 191/1/2
f 187/2/2 188/2/2 192/2/2
f 192/2/2 188/2/2 193/2/2
f 190/3/2 191/3/2 197/3/2
f 197/3/2 191/3/2 198/3/2
f 193/2/2 194/2/2 199/2/2
f 199/2/2 194/2/2 200/2/2
f 195/2/2 196/2/2 201/2/2
f 201/2/2 196/2/2 202/2/2
f 200/2/2 201/2/2 203/2/2
f 203/2/2 201/2/2 204/2/2
f 205/3/2 206/3/2 208/3/2
f 208/3/2 206/3/2 211/3/2
f 207/3/2 208/3/2 211/3/2
f 209/3/2 210/3/2 212/3/2
f 212/3/2 210/3/2 213/3/2
f 207/3/2 211/3/2 215/3/2
f 215/3/2 211/3/2 216/3/2
f 211/1/2 212/1/2 217/1/2
f 216/3/2 211/3/2 217/3/2
f 217/1/2 212/1/2 218/1/2
f 214/2/2 215/2/2 221/2/2
f 215/3/2 216/3/2 222/3/2
f 221/2/2 215/2/2 222/2/2
f 222/3/2 216/3/2 223/3/2
f 219/1/2 220/1/2 225/1/2
f 225/1/2 220/1/2 226/1/2
f 226/1/2 220/1/2 227/1/2
f 214/2/2 221/2/2 228/2/2
f 228/2/2 221/2/2 229/2/2
f 224/2/2 225/2/2 232/2/2
f 225/1/2 226/1/2 233/1/2
f 232/2/2 225/2/2 233/2/2
f 233/1/2 226/1/2 234/1/2
f 230/2/2 231/2/2 235/2/2
f 229/2/2 230/2/2 235/2/2
f 235/2/2 231/2/2 236/2/2
f 236/2/2 237/2/2 240/2/2
f 240/2/2 237/2/2 241/2/2
f 238/2/2 239/2/2 242/2/2
f 242/2/2 239/2/2 243/2/2
f 241/2/2 242/2/2 244/2/2
f 244/2/2 242/2/2 245/2/2
f 246/1/2 247/1/2 249/1/2
f 249/1/2 247/1/2 250/1/2
f 248/1/2 249/1/2 254/1/2
f 249/1/2 250/1/2 254/1/2
f 254/1/2 250/1/2 255/1/2
f 250/2/2 251/2/2 256/2/2
f 255/1/2 250/1/2 256/1/2
f 256/2/2 251/2/2 257/2/2
f 257/2/2 251/2/2 258/2/2
f 252/4/2 253/4/2 259/4/2
f 254/1/2 255/1/2 260/1/2
f 259/4/2 253/4/2 260/4/2
f 253/1/2 254/1/2 260/1/2
f 260/1/2 255/1/2 261/1/2
f 256/2/2 257/2/2 262/2/2
f 261/1/2 255/1/2 262/1/2
f 255/2/2 256/2/2 262/2/2
f 261/2/2 262/2/2 263/2/2
f 263/2/2 262/2/2 264/2/2
f 262/2/2 257/2/2 265/2/2
f 264/2/2 262/2/2 265/2/2
f 265/2/2 257/2/2 266/2/2
f 264/2/2 265/2/2 267/2/2
f 267/2/2 265/2/2 268/2/2
f 271/2/3 270/2/3 269/2/3
f 272/2/3 270/2/3 271/2/3
f 276/2/3 274/2/3 273/2/3
f 277/2/3 274/2/3 276/2/3
f 279/1/3 276/1/3 275/1/3
f 280/1/3 276/1/3 279/1/3
f 281/2/3 278/2/3 277/2/3
f 282/2/3 278/2/3 281/2/3
f 283/2/3 281/2/3 280/2/3
f 284/2/3 281/2/3 283/2/3
f 287/4/3 286/4/3 285/4/3
f 288/4/3 286/4/3 287/4/3
f 290/2/3 289/2/3 288/2/3
f 291/2/3 289/2/3 290/2/3
f 294/2/3 292/2/3 291/2/3
f 295/2/3 292/2/3 294/2/3
f 297/2/3 294/2/3 293/2/3
f 298/2/3 294/2/3 297/2/3
f 299/4/3 297/4/3 296/4/3
f 300/4/3 297/4/3 299/4/3
f 303/3/3 302/3/3 301/3/3
f 304/3/3 302/3/3 303/3/3
f 305/3/3 302/3/3 304/3/3
f 306/3/3 302/3/3 305/3/3
f 308/1/3 305/1/3 304/1/3
f 309/1/3 305/1/3 308/1/3
f 311/3/3 308/3/3 307/3/3
f 311/3/3 310/3/3 309/3/3
f 311/3/3 309/3/3 308/3/3
f 312/3/3 310/3/3 311/3/3
f 319/1/3 314/1/3 313/1/3
f 320/1/3 314/1/3 319/1/3
f 321/2/3 316/2/3 315/2/3
f 322/2/3 316/2/3 321/2/3
f 324/3/3 318/3/3 317/3/3
f 325/3/3 318/3/3 324/3/3
f 326/2/3 323/2/3 322/2/3
f 327/2/3 323/2/3 326/2/3
f 332/2/3 328/2/3 327/2/3
f 333/2/3 328/2/3 332/2/3
f 334/3/3 330/3/3 329/3/3
f 335/3/3 330/3/3 334/3/3
f 339/2/3 332/2/3 331/2/3
f 340/2/3 332/2/3 339/2/3
f 341/1/3 337/1/3 336/1/3
f 342/1/3 337/1/3 341/1/3
f 343/2/3 339/2/3 338/2/3
f 344/2/3 339/2/3 343/2/3
f 347/2/3 346/2/3 345/2/3
f 348/2/3 346/2/3 347/2/3
f 350/2/3 349/2/3 348/2/3
f 351/2/3 349/2/3 350/2/3
f 354/2/3 352/2/3 351/2/3
f 355/2/3 352/2/3 354/2/3
f 357/2/3 354/2/3 353/2/3
f 358/2/3 354/2/3 357/2/3
f 359/2/3 357/2/3 356/2/3
f 360/2/3 357/2/3 359/2/3
f 364/1/3 362/1/3 361/1/3
f 365/1/3 362/1/3 364/1/3
f 366/3/3 364/3/3 363/3/3
f 367/3/3 364/3/3 366/3/3
f 368/3/3 364/3/3 367/3/3
f 372/3/3 370/3/3 369/3/3
f 372/3/3 371/3/3 370/3/3
f 373/3/3 371/3/3 372/3/3
f 375/1/3 374/1/3 373/1/3
f 376/1/3 374/1/3 375/1/3
f 381/1/3 378/1/3 377/1/3
f 382/1/3 378/1/3 381/1/3
f 383/1/3 380/1/3 379/1/3
f 384/1/3 380/1/3 383/1/3
f 389/3/3 386/3/3 385/3/3
f 390/3/3 386/3/3 389/3/3
f 391/3/3 388/3/3 387/3/3
f 392/3/3 388/3/3 391/3/3
f 397/3/3 394/3/3 393/3/3
f 398/3/3 394/3/3 397/3/3
f 399/3/3 396/3/3 395/3/3
f 400/3/3 396/3/3 399/3/3
f 401/3/4 402/3/4 403/3/4
f 403/3/4 402/3/4 404/3/4
f 404/3/4 402/3/4 405/3/4
f 406/3/4 407/3/4 409/3/4
f 407/3/4 408/3/4 409/3/4
f 409/3/4 408/3/4 410/3/4
f 411/1/4 412/1/4 416/1/4
f 416/1/4 412/1/4 417/1/4
f 413/2/4 414/2/4 418/2/4
f 418/2/4 414/2/4 419/2/4
f 415/3/4 416/3/4 421/3/4
f 421/3/4 416/3/4 422/3/4
f 416/1/4 417/1/4 423/1/4
f 422/3/4 416/3/4 423/3/4
f 423/1/4 417/1/4 424/1/4
f 419/2/4 420/2/4 425/2/4
f 425/2/4 420/2/4 426/2/4
f 422/1/4 423/1/4 429/1/4
f 429/1/4 423/1/4 430/1/4
f 426/2/4 427/2/4 433/2/4
f 433/2/4 427/2/4 434/2/4
f 428/3/4 429/3/4 435/3/4
f 429/3/4 430/3/4 435/3/4
f 430/1/4 431/1/4 436/1/4
f 435/3/4 430/3/4 436/3/4
f 436/1/4 431/1/4 437/1/4
f 432/2/4 433/2/4 439/2/4
f 439/2/4 433/2/4 440/2/4
f 436/1/4 437/1/4 441/1/4
f 441/1/4 437/1/4 442/1/4
f 438/2/4 439/2/4 443/2/4
f 443/2/4 439/2/4 444/2/4
f 445/2/4 446/2/4 447/2/4
f 447/2/4 446/2/4 448/2/4
f 448/2/4 446/2/4 449/2/4
f 449/2/4 450/2/4 453/2/4
f 448/2/4 449/2/4 453/2/4
f 451/1/4 452/1/4 455/1/4
f 455/1/4 452/1/4 456/1/4
f 453/2/4 454/2/4 457/2/4
f 448/2/4 453/2/4 457/2/4
f 457/2/4 454/2/4 458/2/4
f 448/2/4 457/2/4 460/2/4
f 460/2/4 457/2/4 461/2/4
f 461/2/4 457/2/4 462/2/4
f 459/2/4 460/2/4 463/2/4
f 460/2/4 461/2/4 463/2/4
f 463/2/4 461/2/4 464/2/4
f 465/2/4 466/2/4 467/2/4
f 467/2/4 466/2/4 468/2/4
f 469/1/4 470/1/4 471/1/4
f 471/1/4 470/1/4 472/1/4
f 472/1/4 473/1/4 474/1/4
f 474/1/4 473/1/4 475/1/4
f 476/1/4 477/1/4 478/1/4
f 478/1/4 477/1/4 479/1/4
f 480/1/4 481/1/4 483/1/4
f 483/1/4 481/1/4 484/1/4
f 482/1/4 483/1/4 487/1/4
f 485/3/4 486/3/4 487/3/4
f 484/1/4 485/1/4 487/1/4
f 483/1/4 484/1/4 487/1/4
f 487/3/4 486/3/4 488/3/4
f 482/1/4 487/1/4 489/1/4
f 482/1/4 489/1/4 491/1/4
f 491/1/4 489/1/4 492/1/4
f 492/1/4 489/1/4 493/1/4
f 489/3/4 490/3/4 494/3/4
f 493/1/4 489/1/4 494/1/4
f 494/3/4 490/3/4 495/3/4
f 492/1/4 493/1/4 496/1/4
f 496/1/4 493/1/4 497/1/4
f 498/3/4 499/3/4 500/3/4
f 500/3/4 499/3/4 503/3/4
f 501/3/4 502/3/4 504/3/4
f 504/3/4 502/3/4 505/3/4
f 503/3/4 499/3/4 506/3/4
f 506/3/4 499/3/4 507/3/4
f 508/3/4 509/3/4 512/3/4
f 512/3/4 509/3/4 513/3/4
f 510/3/4 511/3/4 514/3/4
f 514/3/4 511/3/4 515/3/4
f 520/3/5 517/3/5 516/3/5
f 521/3/5 517/3/5 520/3/5
f 522/3/5 519/3/5 518/3/5
f 523/3/5 519/3/5 522/3/5
f 528/3/5 525/3/5 524/3/5
f 529/3/5 525/3/5 528/3/5
f 530/3/5 527/3/5 526/3/5
f 531/3/5 527/3/5 530/3/5
f 536/3/5 533/3/5 532/3/5
f 537/3/5 533/3/5 536/3/5
f 538/3/5 535/3/5 534/3/5
f 539/3/5 535/3/5 538/3/5
f 542/3/5 541/3/5 540/3/5
f 543/3/5 541/3/5 542/3/5
f 546/1/5 545/1/5 544/1/5
f 547/1/5 545/1/5 546/1/5
f 548/1/5 547/1/5 546/1/5
f 549/1/5 547/1/5 548/1/5
f 550/1/5 549/1/5 548/1/5
f 551/1/5 549/1/5 550/1/5
f 554/3/5 553/3/5 552/3/5
f 555/3/5 553/3/5 554/3/5
f 556/3/5 554/3/5 552/3/5
f 557/3/5 554/3/5 556/3/5
f 558/3/5 553/3/5 555/3/5
f 559/3/5 553/3/5 558/3/5
f 562/1/5 561/1/5 560/1/5
f 563/1/5 561/1/5 562/1/5
f 569/1/5 565/1/5 564/1/5
f 570/1/5 565/1/5 569/1/5
f 571/1/5 567/1/5 566/1/5
f 572/1/5 567/1/5 571/1/5
f 574/1/5 569/1/5 568/1/5
f 575/1/5 569/1/5 574/1/5
f 578/1/5 573/1/5 572/1/5
f 579/1/5 573/1/5 578/1/5
f 580/1/5 577/1/5 576/1/5
f 581/1/5 577/1/5 580/1/5
f 584/1/5 583/1/5 582/1/5
f 585/1/5 583/1/5 584/1/5
f 589/2/5 587/2/5 586/2/5
f 590/2/5 587/2/5 589/2/5
f 592/2/5 589/2/5 588/2/5
f 593/2/5 589/2/5 592/2/5
f 594/2/5 591/2/5 590/2/5
f 595/2/5 591/2/5 594/2/5
f 600/1/5 597/1/5 596/1/5
f 601/1/5 599/1/5 598/1/5
f 602/1/5 600/1/5 596/1/5
f 603/1/5 600/1/5 602/1/5
f 604/1/5 599/1/5 601/1/5
f 605/1/5 599/1/5 604/1/5
f 612/1/5 608/1/5 607/1/5
f 613/1/5 610/1/5 609/1/5
f 614/2/5 607/2/5 606/2/5
f 615/1/5 613/1/5 612/1/5
f 615/2/5 607/2/5 614/2/5
f 615/1/5 612/1/5 607/1/5
f 616/1/5 613/1/5 615/1/5
f 617/1/5 610/1/5 613/1/5
f 617/1/5 613/1/5 616/1/5
f 618/2/5 611/2/5 610/2/5
f 618/1/5 610/1/5 617/1/5
f 619/2/5 611/2/5 618/2/5
f 620/1/5 616/1/5 615/1/5
f 620/1/5 615/1/5 614/1/5
f 621/1/5 616/1/5 620/1/5
f 622/1/5 616/1/5 621/1/5
f 623/1/5 616/1/5 622/1/5
f 624/1/5 618/1/5 617/1/5
f 625/1/5 618/1/5 624/1/5
f 630/4/5 627/4/5 626/4/5
f 631/4/5 627/4/5 630/4/5
f 632/4/5 629/4/5 628/4/5
f 633/4/5 629/4/5 632/4/5
f 634/1/5 631/1/5 630/1/5
f 635/1/5 631/1/5 634/1/5
f 636/1/5 633/1/5 632/1/5
f 637/1/5 633/1/5 636/1/5
f 640/3/5 639/3/5 638/3/5
f 641/3/5 639/3/5 640/3/5
f 644/3/5 643/3/5 642/3/5
f 645/3/5 643/3/5 644/3/5
f 646/3/6 647/3/6 648/3/6
f 648/3/6 647/3/6 649/3/6
f 650/3/6 651/3/6 652/3/6
f 652/3/6 651/3/6 653/3/6
f 654/2/6 655/2/6 658/2/6
f 658/2/6 655/2/6 659/2/6
f 656/2/6 657/2/6 660/2/6
f 660/2/6 657/2/6 661/2/6
f 658/1/6 659/1/6 662/1/6
f 662/1/6 659/1/6 663/1/6
f 663/1/6 664/1/6 667/1/6
f 667/1/6 664/1/6 668/1/6
f 665/1/6 666/1/6 669/1/6
f 669/1/6 666/1/6 670/1/6
f 671/2/6 672/2/6 674/2/6
f 674/2/6 672/2/6 675/2/6
f 673/2/6 674/2/6 678/2/6
f 678/2/6 674/2/6 679/2/6
f 675/2/6 676/2/6 680/2/6
f 680/2/6 676/2/6 681/2/6
f 677/4/6 678/4/6 683/4/6
f 683/4/6 678/4/6 684/4/6
f 681/4/6 682/4/6 685/4/6
f 685/4/6 682/4/6 686/4/6
f 683/1/6 684/1/6 687/1/6
f 687/1/6 684/1/6 688/1/6
f 685/1/6 686/1/6 689/1/6
f 689/1/6 686/1/6 690/1/6
f 691/2/6 692/2/6 693/2/6
f 693/2/6 692/2/6 694/2/6
f 694/2/6 692/2/6 695/2/6
f 695/2/6 692/2/6 696/2/6
f 693/1/6 694/1/6 697/1/6
f 697/1/6 694/1/6 698/1/6
f 695/1/6 696/1/6 699/1/6
f 699/1/6 696/1/6 700/1/6
f 701/2/6 702/2/6 704/2/6
f 704/2/6 702/2/6 705/2/6
f 703/2/6 704/2/6 708/2/6
f 708/2/6 704/2/6 709/2/6
f 705/2/6 706/2/6 710/2/6
f 710/2/6 706/2/6 711/2/6
f 707/2/6 708/2/6 713/2/6
f 713/2/6 708/2/6 714/2/6
f 711/2/6 712/2/6 715/2/6
f 715/2/6 712/2/6 716/2/6
f 717/2/6 718/2/6 721/2/6
f 721/2/6 718/2/6 722/2/6
f 719/2/6 720/2/6 723/2/6
f 723/2/6 720/2/6 724/2/6
f 725/1/6 726/1/6 727/1/6
f 727/1/6 726/1/6 728/1/6
f 729/2/6 730/2/6 732/2/6
f 732/2/6 730/2/6 733/2/6
f 731/2/6 732/2/6 736/2/6
f 736/2/6 732/2/6 737/2/6
f 733/2/6 734/2/6 738/2/6
f 738/2/6 734/2/6 739/2/6
f 735/2/6 736/2/6 741/2/6
f 741/2/6 736/2/6 742/2/6
f 739/2/6 740/2/6 745/2/6
f 745/2/6 740/2/6 746/2/6
f 742/2/6 743/2/6 747/2/6
f 747/2/6 743/2/6 748/2/6
f 744/2/6 745/2/6 749/2/6
f 749/2/6 745/2/6 750/2/6
f 751/3/6 752/3/6 753/3/6
f 753/3/6 752/3/6 754/3/6
f 754/3/6 752/3/6 755/3/6
f 755/3/6 752/3/6 756/3/6
f 757/2/6 758/2/6 760/2/6
f 760/2/6 758/2/6 761/2/6
f 759/2/6 760/2/6 763/2/6
f 763/2/6 760/2/6 764/2/6
f 761/2/6 762/2/6 765/2/6
f 765/2/6 762/2/6 766/2/6
f 764/2/6 765/2/6 767/2/6
f 767/2/6 765/2/6 768/2/6
f 769/3/6 770/3/6 771/3/6
f 771/3/6 770/3/6 772/3/6
f 773/2/6 774/2/6 775/2/6
f 775/2/6 774/2/6 776/2/6
