# MagicaVoxel @ Ephtracy

# group
o 

# material
mtllib rock.mtl
usemtl palette

# normals
vn -1 0 0
vn 1 0 0
vn 0 0 1
vn 0 0 -1
vn 0 -1 0
vn 0 1 0

# texcoords
vt 0.978516 0.5
vt 0.982422 0.5

# verts
v -0.9 0 0.3
v -0.9 0 -0.5
v -0.9 0.2 0.3
v -0.9 0.2 0
v -0.9 0.2 -0.1
v -0.9 0.2 -0.3
v -0.9 0.2 -0.5
v -0.9 0.3 0
v -0.9 0.3 -0.1
v -0.9 0.4 -0.1
v -0.9 0.4 -0.3
v -0.8 0 0.8
v -0.8 0 0.3
v -0.8 0 -0.5
v -0.8 0 -0.7
v -0.8 0.1 0.8
v -0.8 0.1 0.3
v -0.8 0.1 -0.5
v -0.8 0.1 -0.7
v -0.8 0.2 0.1
v -0.8 0.2 0
v -0.8 0.3 0.1
v -0.8 0.3 0
v -0.7 0.1 0.8
v -0.7 0.1 0.6
v -0.7 0.1 0.3
v -0.7 0.1 -0.5
v -0.7 0.1 -0.6
v -0.7 0.2 0.8
v -0.7 0.2 0.6
v -0.7 0.2 0.3
v -0.7 0.2 0.1
v -0.7 0.2 -0.3
v -0.7 0.2 -0.5
v -0.7 0.3 0.1
v -0.7 0.3 -0.1
v -0.7 0.4 0.6
v -0.7 0.4 0.5
v -0.7 0.4 0.3
v -0.7 0.4 -0.1
v -0.7 0.4 -0.3
v -0.7 0.4 -0.6
v -0.7 0.5 0.5
v -0.7 0.5 0.3
v -0.6 0 -0.7
v -0.6 0 -0.8
v -0.6 0.1 -0.6
v -0.6 0.1 -0.7
v -0.6 0.3 -0.6
v -0.6 0.3 -0.8
v -0.6 0.4 0.3
v -0.6 0.4 0
v -0.6 0.5 0.4
v -0.6 0.5 0.3
v -0.6 0.6 0.4
v -0.6 0.6 0
v -0.5 0.4 0
v -0.5 0.4 -0.2
v -0.5 0.5 -0.1
v -0.5 0.5 -0.2
v -0.5 0.6 0
v -0.5 0.6 -0.1
v -0.4 0.5 -0.1
v -0.4 0.5 -0.2
v -0.4 0.6 -0.1
v -0.4 0.6 -0.2
v -0.3 0 -0.8
v -0.3 0 -0.9
v -0.3 0.2 -0.8
v -0.3 0.2 -0.9
v -0.3 0.4 -0.2
v -0.3 0.4 -0.4
v -0.3 0.6 -0.2
v -0.3 0.6 -0.4
v -0.1 0 0.8
v -0.1 0 0.6
v -0.1 0.2 0.8
v -0.1 0.2 0.6
v 0 0.2 0.8
v 0 0.2 0.6
v 0 0.4 0.8
v 0 0.4 0.7
v 0 0.4 0.6
v 0 0.4 0.4
v 0 0.6 0.7
v 0 0.6 0.4
v 0.2 0.4 -0.4
v 0.2 0.4 -0.5
v 0.2 0.5 -0.4
v 0.2 0.5 -0.5
v 0.3 0 -0.6
v 0.3 0 -0.7
v 0.3 0.2 -0.6
v 0.3 0.2 -0.7
v -0.5 0.1 0.8
v -0.5 0.1 0.6
v -0.5 0.2 0.8
v -0.5 0.2 0.6
v -0.5 0.4 0.5
v -0.5 0.4 0.4
v -0.5 0.5 0.5
v -0.5 0.5 0.4
v -0.4 0 0.8
v -0.4 0 0.7
v -0.4 0.1 0.8
v -0.4 0.1 0.7
v -0.3 0 0.7
v -0.3 0 0.6
v -0.3 0.1 0.7
v -0.3 0.1 0.6
v -0.1 0.2 -0.6
v -0.1 0.2 -0.8
v -0.1 0.3 -0.6
v -0.1 0.3 -0.8
v 0.1 0 -0.6
v 0.1 0 -0.9
v 0.1 0.2 -0.6
v 0.1 0.2 -0.9
v 0.3 0.4 0.7
v 0.3 0.4 0.5
v 0.3 0.4 0.3
v 0.3 0.4 -0.2
v 0.3 0.5 0.5
v 0.3 0.5 0.3
v 0.3 0.5 -0.2
v 0.3 0.5 -0.4
v 0.3 0.6 0.7
v 0.3 0.6 -0.4
v 0.4 0.2 0.8
v 0.4 0.2 0.6
v 0.4 0.4 0.8
v 0.4 0.4 0.6
v 0.4 0.4 0.5
v 0.4 0.4 0.3
v 0.4 0.4 -0.2
v 0.4 0.4 -0.5
v 0.4 0.5 0.5
v 0.4 0.5 0.3
v 0.4 0.5 -0.2
v 0.4 0.5 -0.5
v 0.5 0.2 0.6
v 0.5 0.2 -0.6
v 0.5 0.4 0.6
v 0.5 0.4 -0.6
v 0.6 0 0.8
v 0.6 0 0.6
v 0.6 0 -0.6
v 0.6 0 -0.7
v 0.6 0.2 0.8
v 0.6 0.2 0.6
v 0.6 0.2 -0.6
v 0.6 0.2 -0.7
v 0.7 0 0.6
v 0.7 0 -0.6
v 0.7 0.2 0.6
v 0.7 0.2 -0.6
v -0.8 0 0.8
v -0.8 0.1 0.8
v -0.7 0.1 0.8
v -0.7 0.2 0.8
v -0.5 0.1 0.8
v -0.5 0.2 0.8
v -0.4 0 0.8
v -0.4 0.1 0.8
v -0.1 0 0.8
v -0.1 0.2 0.8
v 0 0.2 0.8
v 0 0.4 0.8
v 0.4 0.2 0.8
v 0.4 0.4 0.8
v 0.6 0 0.8
v 0.6 0.2 0.8
v -0.4 0 0.7
v -0.4 0.1 0.7
v -0.3 0 0.7
v -0.3 0.1 0.7
v 0 0.4 0.7
v 0 0.6 0.7
v 0.3 0.4 0.7
v 0.3 0.6 0.7
v -0.7 0.2 0.6
v -0.7 0.4 0.6
v -0.5 0.1 0.6
v -0.5 0.2 0.6
v -0.3 0 0.6
v -0.3 0.1 0.6
v -0.1 0 0.6
v -0.1 0.2 0.6
v 0 0.2 0.6
v 0 0.4 0.6
v 0.4 0.2 0.6
v 0.4 0.4 0.6
v 0.5 0.2 0.6
v 0.5 0.4 0.6
v 0.6 0 0.6
v 0.6 0.2 0.6
v 0.7 0 0.6
v 0.7 0.2 0.6
v -0.7 0.4 0.5
v -0.7 0.5 0.5
v -0.5 0.4 0.5
v -0.5 0.5 0.5
v 0.3 0.4 0.5
v 0.3 0.5 0.5
v 0.4 0.4 0.5
v 0.4 0.5 0.5
v -0.6 0.5 0.4
v -0.6 0.6 0.4
v -0.5 0.4 0.4
v -0.5 0.5 0.4
v 0 0.4 0.4
v 0 0.6 0.4
v -0.9 0 0.3
v -0.9 0.2 0.3
v -0.8 0 0.3
v -0.8 0.1 0.3
v -0.7 0.1 0.3
v -0.7 0.2 0.3
v -0.8 0.2 0.1
v -0.8 0.3 0.1
v -0.7 0.2 0.1
v -0.7 0.3 0.1
v -0.9 0.2 0
v -0.9 0.3 0
v -0.8 0.2 0
v -0.8 0.3 0
v -0.9 0.3 -0.1
v -0.9 0.4 -0.1
v -0.7 0.3 -0.1
v -0.7 0.4 -0.1
v 0.3 0.4 -0.2
v 0.3 0.5 -0.2
v 0.4 0.4 -0.2
v 0.4 0.5 -0.2
v -0.7 0.4 0.3
v -0.7 0.5 0.3
v -0.6 0.4 0.3
v -0.6 0.5 0.3
v 0.3 0.4 0.3
v 0.3 0.5 0.3
v 0.4 0.4 0.3
v 0.4 0.5 0.3
v -0.6 0.4 0
v -0.6 0.6 0
v -0.5 0.4 0
v -0.5 0.6 0
v -0.5 0.5 -0.1
v -0.5 0.6 -0.1
v -0.4 0.5 -0.1
v -0.4 0.6 -0.1
v -0.5 0.4 -0.2
v -0.5 0.5 -0.2
v -0.4 0.5 -0.2
v -0.4 0.6 -0.2
v -0.3 0.4 -0.2
v -0.3 0.6 -0.2
v -0.9 0.2 -0.3
v -0.9 0.4 -0.3
v -0.7 0.2 -0.3
v -0.7 0.4 -0.3
v -0.3 0.4 -0.4
v -0.3 0.6 -0.4
v 0.2 0.4 -0.4
v 0.2 0.5 -0.4
v 0.3 0.5 -0.4
v 0.3 0.6 -0.4
v -0.9 0 -0.5
v -0.9 0.2 -0.5
v -0.8 0 -0.5
v -0.8 0.1 -0.5
v -0.7 0.1 -0.5
v -0.7 0.2 -0.5
v 0.2 0.4 -0.5
v 0.2 0.5 -0.5
v 0.4 0.4 -0.5
v 0.4 0.5 -0.5
v -0.7 0.1 -0.6
v -0.7 0.4 -0.6
v -0.6 0.1 -0.6
v -0.6 0.3 -0.6
v -0.1 0.2 -0.6
v -0.1 0.3 -0.6
v 0.1 0 -0.6
v 0.1 0.2 -0.6
v 0.3 0 -0.6
v 0.3 0.2 -0.6
v 0.5 0.2 -0.6
v 0.5 0.4 -0.6
v 0.6 0 -0.6
v 0.6 0.2 -0.6
v 0.7 0 -0.6
v 0.7 0.2 -0.6
v -0.8 0 -0.7
v -0.8 0.1 -0.7
v -0.6 0 -0.7
v -0.6 0.1 -0.7
v 0.3 0 -0.7
v 0.3 0.2 -0.7
v 0.6 0 -0.7
v 0.6 0.2 -0.7
v -0.6 0 -0.8
v -0.6 0.3 -0.8
v -0.3 0 -0.8
v -0.3 0.2 -0.8
v -0.1 0.2 -0.8
v -0.1 0.3 -0.8
v -0.3 0 -0.9
v -0.3 0.2 -0.9
v 0.1 0 -0.9
v 0.1 0.2 -0.9
v -0.8 0 0.8
v -0.4 0 0.8
v -0.1 0 0.8
v 0.6 0 0.8
v -0.4 0 0.7
v -0.3 0 0.7
v 0 0 0.7
v 0.5 0 0.7
v -0.7 0 0.6
v -0.3 0 0.6
v -0.1 0 0.6
v 0 0 0.6
v 0.5 0 0.6
v 0.6 0 0.6
v 0.7 0 0.6
v -0.9 0 0.3
v -0.8 0 0.3
v -0.7 0 0.3
v -0.9 0 -0.5
v -0.8 0 -0.5
v -0.6 0 -0.5
v -0.6 0 -0.6
v -0.5 0 -0.6
v -0.3 0 -0.6
v 0.1 0 -0.6
v 0.3 0 -0.6
v 0.6 0 -0.6
v 0.7 0 -0.6
v -0.8 0 -0.7
v -0.6 0 -0.7
v -0.5 0 -0.7
v -0.3 0 -0.7
v 0.3 0 -0.7
v 0.6 0 -0.7
v -0.6 0 -0.8
v -0.3 0 -0.8
v -0.3 0 -0.9
v 0.1 0 -0.9
v -0.8 0.1 0.8
v -0.7 0.1 0.8
v -0.5 0.1 0.8
v -0.4 0.1 0.8
v -0.4 0.1 0.7
v -0.3 0.1 0.7
v -0.7 0.1 0.6
v -0.5 0.1 0.6
v -0.3 0.1 0.6
v -0.8 0.1 0.3
v -0.7 0.1 0.3
v -0.8 0.1 -0.5
v -0.7 0.1 -0.5
v -0.7 0.1 -0.6
v -0.6 0.1 -0.6
v -0.8 0.1 -0.7
v -0.6 0.1 -0.7
v -0.7 0.2 0.8
v -0.5 0.2 0.8
v -0.1 0.2 0.8
v 0 0.2 0.8
v 0.4 0.2 0.8
v 0.6 0.2 0.8
v -0.7 0.2 0.6
v -0.5 0.2 0.6
v -0.1 0.2 0.6
v 0 0.2 0.6
v 0.4 0.2 0.6
v 0.5 0.2 0.6
v 0.6 0.2 0.6
v 0.7 0.2 0.6
v -0.9 0.2 0.3
v -0.7 0.2 0.3
v -0.8 0.2 0.1
v -0.7 0.2 0.1
v -0.9 0.2 0
v -0.8 0.2 0
v -0.9 0.2 -0.3
v -0.7 0.2 -0.3
v -0.9 0.2 -0.5
v -0.7 0.2 -0.5
v -0.1 0.2 -0.6
v 0.1 0.2 -0.6
v 0.3 0.2 -0.6
v 0.5 0.2 -0.6
v 0.6 0.2 -0.6
v 0.7 0.2 -0.6
v 0.3 0.2 -0.7
v 0.6 0.2 -0.7
v -0.3 0.2 -0.8
v -0.1 0.2 -0.8
v -0.3 0.2 -0.9
v 0.1 0.2 -0.9
v -0.8 0.3 0.1
v -0.7 0.3 0.1
v -0.9 0.3 0
v -0.8 0.3 0
v -0.9 0.3 -0.1
v -0.7 0.3 -0.1
v -0.6 0.3 -0.6
v -0.1 0.3 -0.6
v -0.6 0.3 -0.8
v -0.1 0.3 -0.8
v 0 0.4 0.8
v 0.4 0.4 0.8
v 0 0.4 0.7
v 0.3 0.4 0.7
v -0.7 0.4 0.6
v 0 0.4 0.6
v 0.4 0.4 0.6
v 0.5 0.4 0.6
v -0.7 0.4 0.5
v -0.5 0.4 0.5
v 0.3 0.4 0.5
v 0.4 0.4 0.5
v -0.5 0.4 0.4
v 0 0.4 0.4
v -0.7 0.4 0.3
v -0.6 0.4 0.3
v 0.3 0.4 0.3
v 0.4 0.4 0.3
v -0.6 0.4 0
v -0.5 0.4 0
v -0.9 0.4 -0.1
v -0.7 0.4 -0.1
v -0.5 0.4 -0.2
v -0.3 0.4 -0.2
v 0.3 0.4 -0.2
v 0.4 0.4 -0.2
v -0.9 0.4 -0.3
v -0.7 0.4 -0.3
v -0.3 0.4 -0.4
v 0.2 0.4 -0.4
v 0.2 0.4 -0.5
v 0.4 0.4 -0.5
v -0.7 0.4 -0.6
v 0.5 0.4 -0.6
v -0.7 0.5 0.5
v -0.5 0.5 0.5
v 0.3 0.5 0.5
v 0.4 0.5 0.5
v -0.6 0.5 0.4
v -0.5 0.5 0.4
v -0.7 0.5 0.3
v -0.6 0.5 0.3
v 0.3 0.5 0.3
v 0.4 0.5 0.3
v -0.5 0.5 -0.1
v -0.4 0.5 -0.1
v -0.5 0.5 -0.2
v -0.4 0.5 -0.2
v 0.3 0.5 -0.2
v 0.4 0.5 -0.2
v 0.2 0.5 -0.4
v 0.3 0.5 -0.4
v 0.2 0.5 -0.5
v 0.4 0.5 -0.5
v 0 0.6 0.7
v 0.3 0.6 0.7
v -0.6 0.6 0.4
v 0 0.6 0.4
v -0.6 0.6 0
v -0.5 0.6 0
v -0.3 0.6 0
v -0.5 0.6 -0.1
v -0.4 0.6 -0.1
v -0.4 0.6 -0.2
v -0.3 0.6 -0.2
v -0.3 0.6 -0.4
v 0.3 0.6 -0.4

# faces
f 3/1/1 2/1/1 1/1/1
f 4/1/1 2/1/1 3/1/1
f 5/1/1 2/1/1 4/1/1
f 6/1/1 2/1/1 5/1/1
f 7/1/1 2/1/1 6/1/1
f 8/2/1 5/2/1 4/2/1
f 9/1/1 6/1/1 5/1/1
f 9/2/1 5/2/1 8/2/1
f 10/1/1 6/1/1 9/1/1
f 11/1/1 6/1/1 10/1/1
f 16/2/1 13/2/1 12/2/1
f 17/2/1 13/2/1 16/2/1
f 18/2/1 15/2/1 14/2/1
f 19/2/1 15/2/1 18/2/1
f 22/2/1 21/2/1 20/2/1
f 23/2/1 21/2/1 22/2/1
f 29/2/1 25/2/1 24/2/1
f 30/1/1 26/1/1 25/1/1
f 30/2/1 25/2/1 29/2/1
f 31/1/1 26/1/1 30/1/1
f 34/1/1 28/1/1 27/1/1
f 35/1/1 32/1/1 31/1/1
f 35/1/1 31/1/1 30/1/1
f 37/1/1 35/1/1 30/1/1
f 37/1/1 36/1/1 35/1/1
f 38/1/1 36/1/1 37/1/1
f 39/1/1 36/1/1 38/1/1
f 40/1/1 36/1/1 39/1/1
f 41/1/1 34/1/1 33/1/1
f 42/1/1 28/1/1 34/1/1
f 42/1/1 34/1/1 41/1/1
f 43/2/1 39/2/1 38/2/1
f 44/2/1 39/2/1 43/2/1
f 48/2/1 46/2/1 45/2/1
f 49/2/1 48/2/1 47/2/1
f 50/2/1 46/2/1 48/2/1
f 50/2/1 48/2/1 49/2/1
f 54/1/1 52/1/1 51/1/1
f 55/1/1 54/1/1 53/1/1
f 56/1/1 52/1/1 54/1/1
f 56/1/1 54/1/1 55/1/1
f 59/2/1 58/2/1 57/2/1
f 60/2/1 58/2/1 59/2/1
f 61/2/1 59/2/1 57/2/1
f 62/2/1 59/2/1 61/2/1
f 65/2/1 64/2/1 63/2/1
f 66/2/1 64/2/1 65/2/1
f 69/2/1 68/2/1 67/2/1
f 70/2/1 68/2/1 69/2/1
f 73/1/1 72/1/1 71/1/1
f 74/1/1 72/1/1 73/1/1
f 77/2/1 76/2/1 75/2/1
f 78/2/1 76/2/1 77/2/1
f 81/1/1 80/1/1 79/1/1
f 82/1/1 80/1/1 81/1/1
f 83/1/1 80/1/1 82/1/1
f 85/1/1 84/1/1 83/1/1
f 85/1/1 83/1/1 82/1/1
f 86/1/1 84/1/1 85/1/1
f 89/2/1 88/2/1 87/2/1
f 90/2/1 88/2/1 89/2/1
f 93/2/1 92/2/1 91/2/1
f 94/2/1 92/2/1 93/2/1
f 95/2/2 96/2/2 97/2/2
f 97/2/2 96/2/2 98/2/2
f 99/2/2 100/2/2 101/2/2
f 101/2/2 100/2/2 102/2/2
f 103/2/2 104/2/2 105/2/2
f 105/2/2 104/2/2 106/2/2
f 107/2/2 108/2/2 109/2/2
f 109/2/2 108/2/2 110/2/2
f 111/2/2 112/2/2 113/2/2
f 113/2/2 112/2/2 114/2/2
f 115/2/2 116/2/2 117/2/2
f 117/2/2 116/2/2 118/2/2
f 119/1/2 120/1/2 123/1/2
f 121/1/2 122/1/2 124/1/2
f 124/1/2 122/1/2 125/1/2
f 119/1/2 123/1/2 127/1/2
f 125/1/2 126/1/2 127/1/2
f 124/1/2 125/1/2 127/1/2
f 123/1/2 124/1/2 127/1/2
f 127/1/2 126/1/2 128/1/2
f 129/1/2 130/1/2 131/1/2
f 131/1/2 130/1/2 132/1/2
f 133/2/2 134/2/2 137/2/2
f 137/2/2 134/2/2 138/2/2
f 135/2/2 136/2/2 139/2/2
f 139/2/2 136/2/2 140/2/2
f 141/1/2 142/1/2 143/1/2
f 143/1/2 142/1/2 144/1/2
f 145/2/2 146/2/2 149/2/2
f 149/2/2 146/2/2 150/2/2
f 147/2/2 148/2/2 151/2/2
f 151/2/2 148/2/2 152/2/2
f 153/1/2 154/1/2 155/1/2
f 155/1/2 154/1/2 156/1/2
f 159/2/3 158/2/3 157/2/3
f 161/2/3 159/2/3 157/2/3
f 161/2/3 160/2/3 159/2/3
f 162/2/3 160/2/3 161/2/3
f 163/2/3 161/2/3 157/2/3
f 164/2/3 161/2/3 163/2/3
f 167/2/3 166/2/3 165/2/3
f 169/2/3 167/2/3 165/2/3
f 169/1/3 168/1/3 167/1/3
f 170/1/3 168/1/3 169/1/3
f 171/2/3 169/2/3 165/2/3
f 172/2/3 169/2/3 171/2/3
f 175/2/3 174/2/3 173/2/3
f 176/2/3 174/2/3 175/2/3
f 179/1/3 178/1/3 177/1/3
f 180/1/3 178/1/3 179/1/3
f 184/1/3 182/1/3 181/1/3
f 186/1/3 184/1/3 183/1/3
f 187/1/3 186/1/3 185/1/3
f 188/1/3 182/1/3 184/1/3
f 188/1/3 186/1/3 187/1/3
f 188/1/3 184/1/3 186/1/3
f 189/1/3 182/1/3 188/1/3
f 190/1/3 182/1/3 189/1/3
f 193/1/3 192/1/3 191/1/3
f 194/1/3 192/1/3 193/1/3
f 197/1/3 196/1/3 195/1/3
f 198/1/3 196/1/3 197/1/3
f 201/2/3 200/2/3 199/2/3
f 202/2/3 200/2/3 201/2/3
f 205/2/3 204/2/3 203/2/3
f 206/2/3 204/2/3 205/2/3
f 210/1/3 208/1/3 207/1/3
f 211/1/3 210/1/3 209/1/3
f 212/1/3 208/1/3 210/1/3
f 212/1/3 210/1/3 211/1/3
f 215/1/3 214/1/3 213/1/3
f 216/1/3 214/1/3 215/1/3
f 217/1/3 214/1/3 216/1/3
f 218/1/3 214/1/3 217/1/3
f 221/2/3 220/2/3 219/2/3
f 222/2/3 220/2/3 221/2/3
f 225/2/3 224/2/3 223/2/3
f 226/2/3 224/2/3 225/2/3
f 229/1/3 228/1/3 227/1/3
f 230/1/3 228/1/3 229/1/3
f 233/2/3 232/2/3 231/2/3
f 234/2/3 232/2/3 233/2/3
f 235/2/4 236/2/4 237/2/4
f 237/2/4 236/2/4 238/2/4
f 239/2/4 240/2/4 241/2/4
f 241/2/4 240/2/4 242/2/4
f 243/1/4 244/1/4 245/1/4
f 245/1/4 244/1/4 246/1/4
f 247/2/4 248/2/4 249/2/4
f 249/2/4 248/2/4 250/2/4
f 251/2/4 252/2/4 253/2/4
f 251/2/4 253/2/4 255/2/4
f 253/2/4 254/2/4 255/2/4
f 255/2/4 254/2/4 256/2/4
f 257/1/4 258/1/4 259/1/4
f 259/1/4 258/1/4 260/1/4
f 261/1/4 262/1/4 263/1/4
f 263/1/4 262/1/4 264/1/4
f 264/1/4 262/1/4 265/1/4
f 265/1/4 262/1/4 266/1/4
f 267/1/4 268/1/4 269/1/4
f 269/1/4 268/1/4 270/1/4
f 270/1/4 268/1/4 271/1/4
f 271/1/4 268/1/4 272/1/4
f 273/2/4 274/2/4 275/2/4
f 275/2/4 274/2/4 276/2/4
f 277/1/4 278/1/4 279/1/4
f 279/1/4 278/1/4 280/1/4
f 280/1/4 278/1/4 282/1/4
f 281/1/4 282/1/4 284/1/4
f 283/1/4 284/1/4 285/1/4
f 284/1/4 282/1/4 286/1/4
f 285/1/4 284/1/4 286/1/4
f 286/1/4 282/1/4 287/1/4
f 282/1/4 278/1/4 288/1/4
f 287/1/4 282/1/4 288/1/4
f 289/1/4 290/1/4 291/1/4
f 291/1/4 290/1/4 292/1/4
f 293/2/4 294/2/4 295/2/4
f 295/2/4 294/2/4 296/2/4
f 297/2/4 298/2/4 299/2/4
f 299/2/4 298/2/4 300/2/4
f 301/2/4 302/2/4 303/2/4
f 303/2/4 302/2/4 304/2/4
f 304/2/4 302/2/4 305/2/4
f 305/2/4 302/2/4 306/2/4
f 307/2/4 308/2/4 309/2/4
f 309/2/4 308/2/4 310/2/4
f 315/2/5 312/2/5 311/2/5
f 317/2/5 314/2/5 313/2/5
f 318/2/5 314/2/5 317/2/5
f 319/2/5 316/2/5 315/2/5
f 319/2/5 315/2/5 311/2/5
f 320/2/5 316/2/5 319/2/5
f 321/2/5 317/2/5 313/2/5
f 322/1/5 318/1/5 317/1/5
f 322/2/5 317/2/5 321/2/5
f 323/2/5 314/2/5 318/2/5
f 323/1/5 318/1/5 322/1/5
f 324/2/5 314/2/5 323/2/5
f 327/2/5 319/2/5 311/2/5
f 328/1/5 322/1/5 321/1/5
f 328/1/5 321/1/5 320/1/5
f 328/2/5 319/2/5 327/2/5
f 328/1/5 320/1/5 319/1/5
f 328/1/5 324/1/5 323/1/5
f 328/1/5 323/1/5 322/1/5
f 328/1/5 325/1/5 324/1/5
f 329/1/5 327/1/5 326/1/5
f 329/1/5 328/1/5 327/1/5
f 330/1/5 328/1/5 329/1/5
f 331/1/5 325/1/5 328/1/5
f 331/1/5 328/1/5 330/1/5
f 332/1/5 325/1/5 331/1/5
f 332/2/5 331/2/5 330/2/5
f 333/1/5 325/1/5 332/1/5
f 334/1/5 325/1/5 333/1/5
f 335/1/5 325/1/5 334/1/5
f 336/1/5 325/1/5 335/1/5
f 337/1/5 325/1/5 336/1/5
f 338/1/5 325/1/5 337/1/5
f 339/2/5 332/2/5 330/2/5
f 339/2/5 333/2/5 332/2/5
f 340/2/5 333/2/5 339/2/5
f 341/1/5 334/1/5 333/1/5
f 341/2/5 333/2/5 340/2/5
f 342/2/5 335/2/5 334/2/5
f 342/1/5 334/1/5 341/1/5
f 343/2/5 337/2/5 336/2/5
f 344/2/5 337/2/5 343/2/5
f 345/2/5 341/2/5 340/2/5
f 345/2/5 342/2/5 341/2/5
f 346/2/5 335/2/5 342/2/5
f 346/2/5 342/2/5 345/2/5
f 347/2/5 335/2/5 346/2/5
f 348/2/5 335/2/5 347/2/5
f 351/2/6 352/2/6 353/2/6
f 349/2/6 350/2/6 355/2/6
f 353/2/6 354/2/6 356/2/6
f 351/2/6 353/2/6 356/2/6
f 356/2/6 354/2/6 357/2/6
f 349/2/6 355/2/6 358/2/6
f 358/2/6 355/2/6 359/2/6
f 360/2/6 361/2/6 362/2/6
f 360/2/6 362/2/6 364/2/6
f 362/2/6 363/2/6 364/2/6
f 364/2/6 363/2/6 365/2/6
f 366/2/6 367/2/6 372/2/6
f 372/2/6 367/2/6 373/2/6
f 368/2/6 369/2/6 374/2/6
f 374/2/6 369/2/6 375/2/6
f 370/2/6 371/2/6 376/2/6
f 376/2/6 371/2/6 377/2/6
f 377/2/6 371/2/6 378/2/6
f 380/1/6 381/1/6 382/1/6
f 382/1/6 381/1/6 383/1/6
f 380/1/6 382/1/6 384/1/6
f 384/1/6 382/1/6 385/1/6
f 386/1/6 387/1/6 388/1/6
f 388/1/6 387/1/6 389/1/6
f 378/1/6 379/1/6 393/1/6
f 377/1/6 378/1/6 393/1/6
f 393/1/6 379/1/6 394/1/6
f 394/1/6 379/1/6 395/1/6
f 392/2/6 393/2/6 396/2/6
f 393/2/6 394/2/6 396/2/6
f 396/2/6 394/2/6 397/2/6
f 390/2/6 391/2/6 399/2/6
f 398/2/6 399/2/6 400/2/6
f 399/2/6 391/2/6 401/2/6
f 400/2/6 399/2/6 401/2/6
f 402/2/6 403/2/6 405/2/6
f 404/2/6 405/2/6 406/2/6
f 405/2/6 403/2/6 407/2/6
f 406/2/6 405/2/6 407/2/6
f 408/2/6 409/2/6 410/2/6
f 410/2/6 409/2/6 411/2/6
f 412/1/6 413/1/6 414/1/6
f 414/1/6 413/1/6 415/1/6
f 415/1/6 413/1/6 418/1/6
f 416/1/6 417/1/6 420/1/6
f 420/1/6 417/1/6 421/1/6
f 418/1/6 419/1/6 422/1/6
f 415/1/6 418/1/6 422/1/6
f 422/1/6 419/1/6 423/1/6
f 421/1/6 417/1/6 424/1/6
f 424/1/6 417/1/6 425/1/6
f 423/1/6 419/1/6 429/1/6
f 426/1/6 427/1/6 430/1/6
f 426/1/6 430/1/6 433/1/6
f 430/1/6 431/1/6 433/1/6
f 433/1/6 431/1/6 434/1/6
f 432/1/6 433/1/6 434/1/6
f 428/1/6 429/1/6 436/1/6
f 429/1/6 419/1/6 437/1/6
f 436/1/6 429/1/6 437/1/6
f 434/1/6 435/1/6 438/1/6
f 432/1/6 434/1/6 438/1/6
f 438/1/6 435/1/6 439/1/6
f 439/1/6 435/1/6 440/1/6
f 440/1/6 441/1/6 442/1/6
f 437/1/6 419/1/6 443/1/6
f 440/1/6 442/1/6 444/1/6
f 442/1/6 443/1/6 444/1/6
f 439/1/6 440/1/6 444/1/6
f 443/1/6 419/1/6 445/1/6
f 444/1/6 443/1/6 445/1/6
f 446/2/6 447/2/6 450/2/6
f 450/2/6 447/2/6 451/2/6
f 446/2/6 450/2/6 452/2/6
f 452/2/6 450/2/6 453/2/6
f 448/2/6 449/2/6 454/2/6
f 454/2/6 449/2/6 455/2/6
f 456/2/6 457/2/6 458/2/6
f 458/2/6 457/2/6 459/2/6
f 460/2/6 461/2/6 463/2/6
f 462/2/6 463/2/6 464/2/6
f 463/2/6 461/2/6 465/2/6
f 464/2/6 463/2/6 465/2/6
f 466/1/6 467/1/6 469/1/6
f 468/1/6 469/1/6 470/1/6
f 470/1/6 469/1/6 471/1/6
f 471/1/6 469/1/6 472/1/6
f 471/2/6 472/2/6 473/2/6
f 473/2/6 472/2/6 474/2/6
f 474/2/6 472/2/6 475/2/6
f 472/1/6 469/1/6 476/1/6
f 475/2/6 472/2/6 476/2/6
f 476/1/6 469/1/6 477/1/6
f 469/1/6 467/1/6 478/1/6
f 477/1/6 469/1/6 478/1/6
