# MagicaVoxel @ Ephtracy

# group
o 

# material
mtllib lilypad 17 x 17.mtl
usemtl palette

# normals
vn -1 0 0
vn 1 0 0
vn 0 0 1
vn 0 0 -1
vn 0 -1 0
vn 0 1 0

# texcoords
vt 0.818359 0.5
vt 0.904297 0.5

# verts
v -0.8 0 0.1
v -0.8 0 -0.4
v -0.8 0.2 0.1
v -0.8 0.2 -0.4
v -0.7 0 0.4
v -0.7 0 0.1
v -0.7 0 -0.4
v -0.7 0 -0.5
v -0.7 0.1 -0.4
v -0.7 0.1 -0.5
v -0.7 0.2 0.4
v -0.7 0.2 0.1
v -0.6 0 0.5
v -0.6 0 0.4
v -0.6 0.2 0.5
v -0.6 0.2 0.4
v -0.4 0 0.6
v -0.4 0 0.5
v -0.4 0.2 0.6
v -0.4 0.2 0.5
v -0.3 0 -0.7
v -0.3 0 -0.9
v -0.3 0.1 -0.7
v -0.3 0.1 -0.9
v -0.2 0 0.7
v -0.2 0 0.6
v -0.2 0 -0.5
v -0.2 0 -0.7
v -0.2 0 -0.9
v -0.2 0 -1
v -0.2 0.1 -0.5
v -0.2 0.1 -0.7
v -0.2 0.1 -0.9
v -0.2 0.2 0.7
v -0.2 0.2 0.6
v -0.2 0.2 -0.9
v -0.2 0.2 -1
v -0.1 0 -0.3
v -0.1 0 -0.5
v -0.1 0.1 -0.3
v -0.1 0.1 -0.5
v 5.96046e-08 0 -0.2
v 5.96046e-08 0 -0.3
v 5.96046e-08 0.1 -0.2
v 5.96046e-08 0.1 -0.3
v 0.1 0 -0.1
v 0.1 0 -0.2
v 0.1 0.1 -0.1
v 0.1 0.1 -0.2
v 0.3 0.1 0.6
v 0.3 0.1 0.5
v 0.3 0.1 -0.8
v 0.3 0.1 -0.9
v 0.3 0.2 0.6
v 0.3 0.2 0.5
v 0.3 0.2 -0.8
v 0.3 0.2 -0.9
v 0.5 0.1 0.5
v 0.5 0.1 0.4
v 0.5 0.1 -0.7
v 0.5 0.1 -0.8
v 0.5 0.2 0.5
v 0.5 0.2 0.4
v 0.5 0.2 -0.7
v 0.5 0.2 -0.8
v 0.7 0.1 0.4
v 0.7 0.1 0.1
v 0.7 0.1 -0.4
v 0.7 0.1 -0.7
v 0.7 0.2 0.4
v 0.7 0.2 0.1
v 0.7 0.2 -0.4
v 0.7 0.2 -0.7
v 0.8 0.1 0.1
v 0.8 0.1 -0.4
v 0.8 0.2 0.1
v 0.8 0.2 -0.4
v -0.7 0.1 0.1
v -0.7 0.1 -0.4
v -0.7 0.2 0.1
v -0.7 0.2 -0.4
v -0.6 0 -0.4
v -0.6 0 -0.5
v -0.6 0.1 0.4
v -0.6 0.1 0.1
v -0.6 0.1 -0.4
v -0.6 0.1 -0.5
v -0.6 0.2 0.4
v -0.6 0.2 0.1
v -0.4 0 -0.3
v -0.4 0 -0.4
v -0.4 0.1 0.5
v -0.4 0.1 0.4
v -0.4 0.1 -0.3
v -0.4 0.1 -0.4
v -0.4 0.2 0.5
v -0.4 0.2 0.4
v -0.3 0 -0.2
v -0.3 0 -0.3
v -0.3 0.1 -0.2
v -0.3 0.1 -0.3
v -0.2 0 -0.1
v -0.2 0 -0.2
v -0.2 0.1 0.6
v -0.2 0.1 0.5
v -0.2 0.1 -0.1
v -0.2 0.1 -0.2
v -0.2 0.2 0.6
v -0.2 0.2 0.5
v 0.3 0 0.7
v 0.3 0 0.6
v 0.3 0 -0.9
v 0.3 0 -1
v 0.3 0.2 0.7
v 0.3 0.2 0.6
v 0.3 0.2 -0.9
v 0.3 0.2 -1
v 0.5 0 0.6
v 0.5 0 0.5
v 0.5 0 -0.8
v 0.5 0 -0.9
v 0.5 0.2 0.6
v 0.5 0.2 0.5
v 0.5 0.2 -0.8
v 0.5 0.2 -0.9
v 0.7 0 0.5
v 0.7 0 0.4
v 0.7 0 -0.7
v 0.7 0 -0.8
v 0.7 0.2 0.5
v 0.7 0.2 0.4
v 0.7 0.2 -0.7
v 0.7 0.2 -0.8
v 0.8 0 0.4
v 0.8 0 0.1
v 0.8 0 -0.4
v 0.8 0 -0.7
v 0.8 0.2 0.4
v 0.8 0.2 0.1
v 0.8 0.2 -0.4
v 0.8 0.2 -0.7
v 0.9 0 0.1
v 0.9 0 -0.4
v 0.9 0.2 0.1
v 0.9 0.2 -0.4
v -0.2 0 0.7
v -0.2 0.2 0.7
v 0.3 0 0.7
v 0.3 0.2 0.7
v -0.4 0 0.6
v -0.4 0.2 0.6
v -0.2 0 0.6
v -0.2 0.2 0.6
v 0.3 0 0.6
v 0.3 0.2 0.6
v 0.5 0 0.6
v 0.5 0.2 0.6
v -0.6 0 0.5
v -0.6 0.2 0.5
v -0.4 0 0.5
v -0.4 0.2 0.5
v 0.5 0 0.5
v 0.5 0.2 0.5
v 0.7 0 0.5
v 0.7 0.2 0.5
v -0.7 0 0.4
v -0.7 0.2 0.4
v -0.6 0 0.4
v -0.6 0.2 0.4
v 0.7 0 0.4
v 0.7 0.2 0.4
v 0.8 0 0.4
v 0.8 0.2 0.4
v -0.8 0 0.1
v -0.8 0.2 0.1
v -0.7 0 0.1
v -0.7 0.2 0.1
v 0.8 0 0.1
v 0.8 0.2 0.1
v 0.9 0 0.1
v 0.9 0.2 0.1
v 5.96046e-08 0 -0.2
v 5.96046e-08 0.1 -0.2
v 0.1 0 -0.2
v 0.1 0.1 -0.2
v -0.1 0 -0.3
v -0.1 0.1 -0.3
v 5.96046e-08 0 -0.3
v 5.96046e-08 0.1 -0.3
v 0.7 0.1 -0.4
v 0.7 0.2 -0.4
v 0.8 0.1 -0.4
v 0.8 0.2 -0.4
v -0.2 0 -0.5
v -0.2 0.1 -0.5
v -0.1 0 -0.5
v -0.1 0.1 -0.5
v -0.3 0 -0.7
v -0.3 0.1 -0.7
v -0.2 0 -0.7
v -0.2 0.1 -0.7
v 0.5 0.1 -0.7
v 0.5 0.2 -0.7
v 0.7 0.1 -0.7
v 0.7 0.2 -0.7
v 0.3 0.1 -0.8
v 0.3 0.2 -0.8
v 0.5 0.1 -0.8
v 0.5 0.2 -0.8
v -0.2 0.1 -0.9
v -0.2 0.2 -0.9
v 0.3 0.1 -0.9
v 0.3 0.2 -0.9
v -0.2 0.1 0.6
v -0.2 0.2 0.6
v 0.3 0.1 0.6
v 0.3 0.2 0.6
v -0.4 0.1 0.5
v -0.4 0.2 0.5
v -0.2 0.1 0.5
v -0.2 0.2 0.5
v 0.3 0.1 0.5
v 0.3 0.2 0.5
v 0.5 0.1 0.5
v 0.5 0.2 0.5
v -0.6 0.1 0.4
v -0.6 0.2 0.4
v -0.4 0.1 0.4
v -0.4 0.2 0.4
v 0.5 0.1 0.4
v 0.5 0.2 0.4
v 0.7 0.1 0.4
v 0.7 0.2 0.4
v -0.7 0.1 0.1
v -0.7 0.2 0.1
v -0.6 0.1 0.1
v -0.6 0.2 0.1
v 0.7 0.1 0.1
v 0.7 0.2 0.1
v 0.8 0.1 0.1
v 0.8 0.2 0.1
v -0.2 0 -0.1
v -0.2 0.1 -0.1
v 0.1 0 -0.1
v 0.1 0.1 -0.1
v -0.3 0 -0.2
v -0.3 0.1 -0.2
v -0.2 0 -0.2
v -0.2 0.1 -0.2
v -0.4 0 -0.3
v -0.4 0.1 -0.3
v -0.3 0 -0.3
v -0.3 0.1 -0.3
v -0.8 0 -0.4
v -0.8 0.2 -0.4
v -0.7 0 -0.4
v -0.7 0.1 -0.4
v -0.7 0.2 -0.4
v -0.6 0 -0.4
v -0.6 0.1 -0.4
v -0.4 0 -0.4
v -0.4 0.1 -0.4
v 0.8 0 -0.4
v 0.8 0.2 -0.4
v 0.9 0 -0.4
v 0.9 0.2 -0.4
v -0.7 0 -0.5
v -0.7 0.1 -0.5
v -0.6 0 -0.5
v -0.6 0.1 -0.5
v 0.7 0 -0.7
v 0.7 0.2 -0.7
v 0.8 0 -0.7
v 0.8 0.2 -0.7
v 0.5 0 -0.8
v 0.5 0.2 -0.8
v 0.7 0 -0.8
v 0.7 0.2 -0.8
v -0.3 0 -0.9
v -0.3 0.1 -0.9
v -0.2 0 -0.9
v -0.2 0.1 -0.9
v 0.3 0 -0.9
v 0.3 0.2 -0.9
v 0.5 0 -0.9
v 0.5 0.2 -0.9
v -0.2 0 -1
v -0.2 0.2 -1
v 0.3 0 -1
v 0.3 0.2 -1
v -0.2 0 0.7
v 0.3 0 0.7
v -0.4 0 0.6
v -0.2 0 0.6
v 0.3 0 0.6
v 0.5 0 0.6
v -0.6 0 0.5
v -0.4 0 0.5
v -0.2 0 0.5
v 5.96046e-08 0 0.5
v 0.2 0 0.5
v 0.3 0 0.5
v 0.5 0 0.5
v 0.7 0 0.5
v -0.7 0 0.4
v -0.6 0 0.4
v -0.4 0 0.4
v -0.3 0 0.4
v 5.96046e-08 0 0.4
v 0.1 0 0.4
v 0.5 0 0.4
v 0.7 0 0.4
v 0.8 0 0.4
v -0.4 0 0.3
v -0.3 0 0.3
v -0.1 0 0.3
v 0.2 0 0.3
v 0.3 0 0.3
v 0.4 0 0.3
v 0.5 0 0.3
v -0.3 0 0.2
v -0.2 0 0.2
v -0.1 0 0.2
v 5.96046e-08 0 0.2
v 0.1 0 0.2
v 0.2 0 0.2
v -0.8 0 0.1
v -0.7 0 0.1
v -0.6 0 0.1
v -0.2 0 0.1
v -0.1 0 0.1
v 0.7 0 0.1
v 0.8 0 0.1
v 0.9 0 0.1
v -0.4 0 -5.96046e-08
v -0.1 0 -5.96046e-08
v 5.96046e-08 0 -5.96046e-08
v 0.2 0 -5.96046e-08
v 0.3 0 -5.96046e-08
v 0.4 0 -5.96046e-08
v 0.5 0 -5.96046e-08
v -0.5 0 -0.1
v -0.4 0 -0.1
v -0.2 0 -0.1
v 0.1 0 -0.1
v 0.2 0 -0.1
v 0.3 0 -0.1
v 0.4 0 -0.1
v 0.6 0 -0.1
v -0.6 0 -0.2
v -0.5 0 -0.2
v -0.4 0 -0.2
v -0.3 0 -0.2
v -0.2 0 -0.2
v 5.96046e-08 0 -0.2
v 0.1 0 -0.2
v 0.2 0 -0.2
v 0.4 0 -0.2
v 0.5 0 -0.2
v 0.6 0 -0.2
v -0.6 0 -0.3
v -0.5 0 -0.3
v -0.4 0 -0.3
v -0.3 0 -0.3
v -0.1 0 -0.3
v 5.96046e-08 0 -0.3
v 0.2 0 -0.3
v 0.3 0 -0.3
v 0.4 0 -0.3
v 0.5 0 -0.3
v 0.6 0 -0.3
v -0.8 0 -0.4
v -0.7 0 -0.4
v -0.6 0 -0.4
v -0.4 0 -0.4
v 0.7 0 -0.4
v 0.8 0 -0.4
v 0.9 0 -0.4
v -0.7 0 -0.5
v -0.6 0 -0.5
v -0.2 0 -0.5
v -0.1 0 -0.5
v 0.4 0 -0.5
v 0.5 0 -0.5
v 0.6 0 -0.5
v 0.1 0 -0.6
v 0.2 0 -0.6
v 0.3 0 -0.6
v 0.4 0 -0.6
v 0.5 0 -0.6
v -0.3 0 -0.7
v -0.2 0 -0.7
v -0.1 0 -0.7
v 5.96046e-08 0 -0.7
v 0.1 0 -0.7
v 0.2 0 -0.7
v 0.5 0 -0.7
v 0.7 0 -0.7
v 0.8 0 -0.7
v -0.2 0 -0.8
v -0.1 0 -0.8
v 0.3 0 -0.8
v 0.5 0 -0.8
v 0.7 0 -0.8
v -0.3 0 -0.9
v -0.2 0 -0.9
v 0.3 0 -0.9
v 0.5 0 -0.9
v -0.2 0 -1
v 0.3 0 -1
v -0.2 0.1 0.6
v 0.3 0.1 0.6
v -0.4 0.1 0.5
v -0.2 0.1 0.5
v 5.96046e-08 0.1 0.5
v 0.2 0.1 0.5
v 0.3 0.1 0.5
v 0.5 0.1 0.5
v -0.6 0.1 0.4
v -0.4 0.1 0.4
v -0.3 0.1 0.4
v 5.96046e-08 0.1 0.4
v 0.1 0.1 0.4
v 0.5 0.1 0.4
v 0.7 0.1 0.4
v -0.4 0.1 0.3
v -0.3 0.1 0.3
v -0.1 0.1 0.3
v 0.2 0.1 0.3
v 0.3 0.1 0.3
v 0.4 0.1 0.3
v 0.5 0.1 0.3
v -0.3 0.1 0.2
v -0.2 0.1 0.2
v -0.1 0.1 0.2
v 5.96046e-08 0.1 0.2
v 0.1 0.1 0.2
v 0.2 0.1 0.2
v -0.7 0.1 0.1
v -0.6 0.1 0.1
v -0.2 0.1 0.1
v -0.1 0.1 0.1
v 0.7 0.1 0.1
v 0.8 0.1 0.1
v -0.4 0.1 -5.96046e-08
v -0.1 0.1 -5.96046e-08
v 5.96046e-08 0.1 -5.96046e-08
v 0.2 0.1 -5.96046e-08
v 0.3 0.1 -5.96046e-08
v 0.4 0.1 -5.96046e-08
v 0.5 0.1 -5.96046e-08
v -0.5 0.1 -0.1
v -0.4 0.1 -0.1
v -0.2 0.1 -0.1
v 0.1 0.1 -0.1
v 0.2 0.1 -0.1
v 0.3 0.1 -0.1
v 0.4 0.1 -0.1
v 0.6 0.1 -0.1
v -0.6 0.1 -0.2
v -0.5 0.1 -0.2
v -0.4 0.1 -0.2
v -0.3 0.1 -0.2
v -0.2 0.1 -0.2
v 5.96046e-08 0.1 -0.2
v 0.1 0.1 -0.2
v 0.2 0.1 -0.2
v 0.4 0.1 -0.2
v 0.5 0.1 -0.2
v 0.6 0.1 -0.2
v -0.6 0.1 -0.3
v -0.5 0.1 -0.3
v -0.4 0.1 -0.3
v -0.3 0.1 -0.3
v -0.1 0.1 -0.3
v 5.96046e-08 0.1 -0.3
v 0.2 0.1 -0.3
v 0.3 0.1 -0.3
v 0.4 0.1 -0.3
v 0.5 0.1 -0.3
v 0.6 0.1 -0.3
v -0.7 0.1 -0.4
v -0.6 0.1 -0.4
v -0.4 0.1 -0.4
v 0.7 0.1 -0.4
v 0.8 0.1 -0.4
v -0.7 0.1 -0.5
v -0.6 0.1 -0.5
v -0.2 0.1 -0.5
v -0.1 0.1 -0.5
v 0.4 0.1 -0.5
v 0.5 0.1 -0.5
v 0.6 0.1 -0.5
v 0.1 0.1 -0.6
v 0.2 0.1 -0.6
v 0.3 0.1 -0.6
v 0.4 0.1 -0.6
v 0.5 0.1 -0.6
v -0.3 0.1 -0.7
v -0.2 0.1 -0.7
v -0.1 0.1 -0.7
v 5.96046e-08 0.1 -0.7
v 0.1 0.1 -0.7
v 0.2 0.1 -0.7
v 0.5 0.1 -0.7
v 0.7 0.1 -0.7
v -0.2 0.1 -0.8
v -0.1 0.1 -0.8
v 0.3 0.1 -0.8
v 0.5 0.1 -0.8
v -0.3 0.1 -0.9
v -0.2 0.1 -0.9
v 0.3 0.1 -0.9
v -0.2 0.2 0.7
v 0.3 0.2 0.7
v -0.4 0.2 0.6
v -0.2 0.2 0.6
v 0.3 0.2 0.6
v 0.5 0.2 0.6
v -0.6 0.2 0.5
v -0.4 0.2 0.5
v -0.2 0.2 0.5
v 0.3 0.2 0.5
v 0.5 0.2 0.5
v 0.7 0.2 0.5
v -0.7 0.2 0.4
v -0.6 0.2 0.4
v -0.4 0.2 0.4
v 0.5 0.2 0.4
v 0.7 0.2 0.4
v 0.8 0.2 0.4
v -0.8 0.2 0.1
v -0.7 0.2 0.1
v -0.6 0.2 0.1
v 0.7 0.2 0.1
v 0.8 0.2 0.1
v 0.9 0.2 0.1
v -0.8 0.2 -0.4
v -0.7 0.2 -0.4
v 0.7 0.2 -0.4
v 0.8 0.2 -0.4
v 0.9 0.2 -0.4
v 0.5 0.2 -0.7
v 0.7 0.2 -0.7
v 0.8 0.2 -0.7
v 0.3 0.2 -0.8
v 0.5 0.2 -0.8
v 0.7 0.2 -0.8
v -0.2 0.2 -0.9
v 0.3 0.2 -0.9
v 0.5 0.2 -0.9
v -0.2 0.2 -1
v 0.3 0.2 -1

# faces
f 3/1/1 2/1/1 1/1/1
f 4/1/1 2/1/1 3/1/1
f 9/2/1 8/2/1 7/2/1
f 10/2/1 8/2/1 9/2/1
f 11/1/1 6/1/1 5/1/1
f 12/1/1 6/1/1 11/1/1
f 15/1/1 14/1/1 13/1/1
f 16/1/1 14/1/1 15/1/1
f 19/1/1 18/1/1 17/1/1
f 20/1/1 18/1/1 19/1/1
f 23/2/1 22/2/1 21/2/1
f 24/2/1 22/2/1 23/2/1
f 31/2/1 28/2/1 27/2/1
f 32/2/1 28/2/1 31/2/1
f 33/1/1 30/1/1 29/1/1
f 34/1/1 26/1/1 25/1/1
f 35/1/1 26/1/1 34/1/1
f 36/1/1 30/1/1 33/1/1
f 37/1/1 30/1/1 36/1/1
f 40/1/1 39/1/1 38/1/1
f 41/1/1 39/1/1 40/1/1
f 44/1/1 43/1/1 42/1/1
f 45/1/1 43/1/1 44/1/1
f 48/1/1 47/1/1 46/1/1
f 49/1/1 47/1/1 48/1/1
f 54/1/1 51/1/1 50/1/1
f 55/1/1 51/1/1 54/1/1
f 56/1/1 53/1/1 52/1/1
f 57/1/1 53/1/1 56/1/1
f 62/1/1 59/1/1 58/1/1
f 63/1/1 59/1/1 62/1/1
f 64/1/1 61/1/1 60/1/1
f 65/1/1 61/1/1 64/1/1
f 70/1/1 67/1/1 66/1/1
f 71/1/1 67/1/1 70/1/1
f 72/1/1 69/1/1 68/1/1
f 73/1/1 69/1/1 72/1/1
f 76/1/1 75/1/1 74/1/1
f 77/1/1 75/1/1 76/1/1
f 78/1/2 79/1/2 80/1/2
f 80/1/2 79/1/2 81/1/2
f 82/2/2 83/2/2 86/2/2
f 86/2/2 83/2/2 87/2/2
f 84/1/2 85/1/2 88/1/2
f 88/1/2 85/1/2 89/1/2
f 90/2/2 91/2/2 94/2/2
f 94/2/2 91/2/2 95/2/2
f 92/1/2 93/1/2 96/1/2
f 96/1/2 93/1/2 97/1/2
f 98/2/2 99/2/2 100/2/2
f 100/2/2 99/2/2 101/2/2
f 102/2/2 103/2/2 106/2/2
f 106/2/2 103/2/2 107/2/2
f 104/1/2 105/1/2 108/1/2
f 108/1/2 105/1/2 109/1/2
f 110/1/2 111/1/2 114/1/2
f 114/1/2 111/1/2 115/1/2
f 112/1/2 113/1/2 116/1/2
f 116/1/2 113/1/2 117/1/2
f 118/1/2 119/1/2 122/1/2
f 122/1/2 119/1/2 123/1/2
f 120/1/2 121/1/2 124/1/2
f 124/1/2 121/1/2 125/1/2
f 126/1/2 127/1/2 130/1/2
f 130/1/2 127/1/2 131/1/2
f 128/1/2 129/1/2 132/1/2
f 132/1/2 129/1/2 133/1/2
f 134/1/2 135/1/2 138/1/2
f 138/1/2 135/1/2 139/1/2
f 136/1/2 137/1/2 140/1/2
f 140/1/2 137/1/2 141/1/2
f 142/1/2 143/1/2 144/1/2
f 144/1/2 143/1/2 145/1/2
f 148/1/3 147/1/3 146/1/3
f 149/1/3 147/1/3 148/1/3
f 152/1/3 151/1/3 150/1/3
f 153/1/3 151/1/3 152/1/3
f 156/1/3 155/1/3 154/1/3
f 157/1/3 155/1/3 156/1/3
f 160/1/3 159/1/3 158/1/3
f 161/1/3 159/1/3 160/1/3
f 164/1/3 163/1/3 162/1/3
f 165/1/3 163/1/3 164/1/3
f 168/1/3 167/1/3 166/1/3
f 169/1/3 167/1/3 168/1/3
f 172/1/3 171/1/3 170/1/3
f 173/1/3 171/1/3 172/1/3
f 176/1/3 175/1/3 174/1/3
f 177/1/3 175/1/3 176/1/3
f 180/1/3 179/1/3 178/1/3
f 181/1/3 179/1/3 180/1/3
f 184/1/3 183/1/3 182/1/3
f 185/1/3 183/1/3 184/1/3
f 188/1/3 187/1/3 186/1/3
f 189/1/3 187/1/3 188/1/3
f 192/1/3 191/1/3 190/1/3
f 193/1/3 191/1/3 192/1/3
f 196/2/3 195/2/3 194/2/3
f 197/2/3 195/2/3 196/2/3
f 200/2/3 199/2/3 198/2/3
f 201/2/3 199/2/3 200/2/3
f 204/1/3 203/1/3 202/1/3
f 205/1/3 203/1/3 204/1/3
f 208/1/3 207/1/3 206/1/3
f 209/1/3 207/1/3 208/1/3
f 212/1/3 211/1/3 210/1/3
f 213/1/3 211/1/3 212/1/3
f 214/1/4 215/1/4 216/1/4
f 216/1/4 215/1/4 217/1/4
f 218/1/4 219/1/4 220/1/4
f 220/1/4 219/1/4 221/1/4
f 222/1/4 223/1/4 224/1/4
f 224/1/4 223/1/4 225/1/4
f 226/1/4 227/1/4 228/1/4
f 228/1/4 227/1/4 229/1/4
f 230/1/4 231/1/4 232/1/4
f 232/1/4 231/1/4 233/1/4
f 234/1/4 235/1/4 236/1/4
f 236/1/4 235/1/4 237/1/4
f 238/1/4 239/1/4 240/1/4
f 240/1/4 239/1/4 241/1/4
f 242/1/4 243/1/4 244/1/4
f 244/1/4 243/1/4 245/1/4
f 246/2/4 247/2/4 248/2/4
f 248/2/4 247/2/4 249/2/4
f 250/2/4 251/2/4 252/2/4
f 252/2/4 251/2/4 253/2/4
f 254/1/4 255/1/4 256/1/4
f 256/1/4 255/1/4 257/1/4
f 257/1/4 255/1/4 258/1/4
f 259/2/4 260/2/4 261/2/4
f 261/2/4 260/2/4 262/2/4
f 263/1/4 264/1/4 265/1/4
f 265/1/4 264/1/4 266/1/4
f 267/2/4 268/2/4 269/2/4
f 269/2/4 268/2/4 270/2/4
f 271/1/4 272/1/4 273/1/4
f 273/1/4 272/1/4 274/1/4
f 275/1/4 276/1/4 277/1/4
f 277/1/4 276/1/4 278/1/4
f 279/2/4 280/2/4 281/2/4
f 281/2/4 280/2/4 282/2/4
f 283/1/4 284/1/4 285/1/4
f 285/1/4 284/1/4 286/1/4
f 287/1/4 288/1/4 289/1/4
f 289/1/4 288/1/4 290/1/4
f 294/1/5 292/1/5 291/1/5
f 295/1/5 292/1/5 294/1/5
f 298/1/5 294/1/5 293/1/5
f 299/2/5 295/2/5 294/2/5
f 299/1/5 294/1/5 298/1/5
f 300/2/5 295/2/5 299/2/5
f 301/2/5 295/2/5 300/2/5
f 302/1/5 296/1/5 295/1/5
f 302/2/5 295/2/5 301/2/5
f 303/1/5 296/1/5 302/1/5
f 306/1/5 298/1/5 297/1/5
f 307/2/5 299/2/5 298/2/5
f 307/2/5 300/2/5 299/2/5
f 307/1/5 298/1/5 306/1/5
f 308/2/5 300/2/5 307/2/5
f 309/1/5 301/1/5 300/1/5
f 309/2/5 300/2/5 308/2/5
f 310/1/5 301/1/5 309/1/5
f 311/1/5 304/1/5 303/1/5
f 311/2/5 302/2/5 301/2/5
f 311/2/5 303/2/5 302/2/5
f 312/1/5 304/1/5 311/1/5
f 314/1/5 308/1/5 307/1/5
f 314/2/5 307/2/5 306/2/5
f 315/2/5 310/2/5 309/2/5
f 315/1/5 308/1/5 314/1/5
f 315/2/5 309/2/5 308/2/5
f 316/2/5 310/2/5 315/2/5
f 317/1/5 301/1/5 310/1/5
f 317/2/5 311/2/5 301/2/5
f 317/2/5 312/2/5 311/2/5
f 318/2/5 312/2/5 317/2/5
f 319/2/5 312/2/5 318/2/5
f 320/2/5 312/2/5 319/2/5
f 321/1/5 316/1/5 315/1/5
f 321/2/5 315/2/5 314/2/5
f 322/1/5 316/1/5 321/1/5
f 323/2/5 310/2/5 316/2/5
f 323/1/5 316/1/5 322/1/5
f 324/2/5 310/2/5 323/2/5
f 325/1/5 317/1/5 310/1/5
f 325/2/5 310/2/5 324/2/5
f 325/1/5 318/1/5 317/1/5
f 326/1/5 318/1/5 325/1/5
f 328/1/5 306/1/5 305/1/5
f 329/2/5 322/2/5 321/2/5
f 329/2/5 314/2/5 306/2/5
f 329/1/5 306/1/5 328/1/5
f 329/2/5 321/2/5 314/2/5
f 330/1/5 324/1/5 323/1/5
f 330/2/5 322/2/5 329/2/5
f 330/1/5 323/1/5 322/1/5
f 331/1/5 324/1/5 330/1/5
f 332/1/5 313/1/5 312/1/5
f 332/2/5 312/2/5 320/2/5
f 333/1/5 313/1/5 332/1/5
f 335/2/5 331/2/5 330/2/5
f 335/2/5 329/2/5 328/2/5
f 335/2/5 330/2/5 329/2/5
f 336/1/5 324/1/5 331/1/5
f 336/2/5 331/2/5 335/2/5
f 337/2/5 325/2/5 324/2/5
f 337/1/5 324/1/5 336/1/5
f 337/2/5 326/2/5 325/2/5
f 338/1/5 318/1/5 326/1/5
f 338/2/5 326/2/5 337/2/5
f 339/2/5 319/2/5 318/2/5
f 339/1/5 318/1/5 338/1/5
f 340/1/5 320/1/5 319/1/5
f 340/2/5 319/2/5 339/2/5
f 341/2/5 333/2/5 332/2/5
f 341/1/5 320/1/5 340/1/5
f 341/2/5 332/2/5 320/2/5
f 342/2/5 335/2/5 328/2/5
f 343/1/5 337/1/5 336/1/5
f 343/2/5 335/2/5 342/2/5
f 343/1/5 336/1/5 335/1/5
f 343/1/5 338/1/5 337/1/5
f 344/1/5 338/1/5 343/1/5
f 345/1/5 338/1/5 344/1/5
f 346/2/5 339/2/5 338/2/5
f 346/1/5 338/1/5 345/1/5
f 347/1/5 340/1/5 339/1/5
f 347/2/5 339/2/5 346/2/5
f 348/2/5 341/2/5 340/2/5
f 348/1/5 340/1/5 347/1/5
f 349/2/5 333/2/5 341/2/5
f 349/2/5 341/2/5 348/2/5
f 350/2/5 342/2/5 328/2/5
f 351/1/5 343/1/5 342/1/5
f 351/2/5 342/2/5 350/2/5
f 352/2/5 344/2/5 343/2/5
f 352/1/5 343/1/5 351/1/5
f 353/2/5 344/2/5 352/2/5
f 354/2/5 344/2/5 353/2/5
f 356/1/5 348/1/5 347/1/5
f 356/1/5 349/1/5 348/1/5
f 356/1/5 346/1/5 345/1/5
f 356/1/5 347/1/5 346/1/5
f 357/1/5 349/1/5 356/1/5
f 358/1/5 349/1/5 357/1/5
f 359/1/5 349/1/5 358/1/5
f 360/2/5 333/2/5 349/2/5
f 360/1/5 349/1/5 359/1/5
f 361/1/5 351/1/5 350/1/5
f 361/2/5 350/2/5 328/2/5
f 362/2/5 353/2/5 352/2/5
f 362/1/5 351/1/5 361/1/5
f 362/2/5 352/2/5 351/2/5
f 363/2/5 353/2/5 362/2/5
f 364/2/5 353/2/5 363/2/5
f 366/1/5 357/1/5 356/1/5
f 366/1/5 356/1/5 355/1/5
f 367/2/5 358/2/5 357/2/5
f 367/1/5 357/1/5 366/1/5
f 368/2/5 358/2/5 367/2/5
f 369/1/5 359/1/5 358/1/5
f 369/2/5 358/2/5 368/2/5
f 370/2/5 360/2/5 359/2/5
f 370/1/5 359/1/5 369/1/5
f 371/2/5 333/2/5 360/2/5
f 371/2/5 360/2/5 370/2/5
f 372/1/5 328/1/5 327/1/5
f 373/2/5 361/2/5 328/2/5
f 373/1/5 328/1/5 372/1/5
f 373/2/5 363/2/5 362/2/5
f 373/2/5 362/2/5 361/2/5
f 374/2/5 363/2/5 373/2/5
f 375/2/5 363/2/5 374/2/5
f 376/2/5 333/2/5 371/2/5
f 377/1/5 334/1/5 333/1/5
f 377/2/5 333/2/5 376/2/5
f 378/1/5 334/1/5 377/1/5
f 379/2/5 374/2/5 373/2/5
f 380/2/5 374/2/5 379/2/5
f 382/1/5 366/1/5 365/1/5
f 383/2/5 370/2/5 369/2/5
f 383/2/5 369/2/5 368/2/5
f 384/1/5 371/1/5 370/1/5
f 384/2/5 370/2/5 383/2/5
f 385/2/5 376/2/5 371/2/5
f 385/1/5 371/1/5 384/1/5
f 386/2/5 367/2/5 366/2/5
f 387/1/5 368/1/5 367/1/5
f 387/2/5 367/2/5 386/2/5
f 388/2/5 383/2/5 368/2/5
f 388/1/5 368/1/5 387/1/5
f 389/1/5 384/1/5 383/1/5
f 389/2/5 383/2/5 388/2/5
f 390/2/5 385/2/5 384/2/5
f 390/1/5 384/1/5 389/1/5
f 392/2/5 382/2/5 381/2/5
f 393/1/5 366/1/5 382/1/5
f 393/2/5 382/2/5 392/2/5
f 394/2/5 386/2/5 366/2/5
f 394/1/5 366/1/5 393/1/5
f 395/1/5 387/1/5 386/1/5
f 395/2/5 386/2/5 394/2/5
f 396/2/5 388/2/5 387/2/5
f 396/1/5 387/1/5 395/1/5
f 396/2/5 389/2/5 388/2/5
f 396/2/5 390/2/5 389/2/5
f 397/2/5 385/2/5 390/2/5
f 397/2/5 390/2/5 396/2/5
f 398/2/5 376/2/5 385/2/5
f 398/2/5 385/2/5 397/2/5
f 398/1/5 377/1/5 376/1/5
f 399/1/5 377/1/5 398/1/5
f 400/1/5 393/1/5 392/1/5
f 400/2/5 392/2/5 391/2/5
f 401/2/5 396/2/5 395/2/5
f 401/1/5 393/1/5 400/1/5
f 401/2/5 395/2/5 394/2/5
f 401/2/5 394/2/5 393/2/5
f 401/2/5 397/2/5 396/2/5
f 402/2/5 397/2/5 401/2/5
f 403/1/5 398/1/5 397/1/5
f 403/2/5 397/2/5 402/2/5
f 404/1/5 398/1/5 403/1/5
f 405/2/5 400/2/5 391/2/5
f 405/2/5 402/2/5 401/2/5
f 405/2/5 401/2/5 400/2/5
f 406/2/5 402/2/5 405/2/5
f 407/1/5 403/1/5 402/1/5
f 407/2/5 402/2/5 406/2/5
f 408/1/5 403/1/5 407/1/5
f 409/1/5 407/1/5 406/1/5
f 410/1/5 407/1/5 409/1/5
f 411/2/6 412/2/6 414/2/6
f 414/2/6 412/2/6 415/2/6
f 415/2/6 412/2/6 416/2/6
f 416/2/6 412/2/6 417/2/6
f 413/2/6 414/2/6 420/2/6
f 414/2/6 415/2/6 420/2/6
f 420/2/6 415/2/6 421/2/6
f 415/1/6 416/1/6 422/1/6
f 421/2/6 415/2/6 422/2/6
f 422/1/6 416/1/6 423/1/6
f 417/2/6 418/2/6 424/2/6
f 416/2/6 417/2/6 424/2/6
f 420/1/6 421/1/6 426/1/6
f 419/2/6 420/2/6 426/2/6
f 422/2/6 423/2/6 427/2/6
f 426/1/6 421/1/6 427/1/6
f 421/2/6 422/2/6 427/2/6
f 427/2/6 423/2/6 428/2/6
f 423/1/6 416/1/6 429/1/6
f 424/2/6 425/2/6 429/2/6
f 416/2/6 424/2/6 429/2/6
f 429/2/6 425/2/6 430/2/6
f 430/2/6 425/2/6 431/2/6
f 431/2/6 425/2/6 432/2/6
f 427/1/6 428/1/6 433/1/6
f 426/2/6 427/2/6 433/2/6
f 433/1/6 428/1/6 434/1/6
f 428/2/6 423/2/6 435/2/6
f 434/1/6 428/1/6 435/1/6
f 435/2/6 423/2/6 436/2/6
f 423/1/6 429/1/6 437/1/6
f 436/2/6 423/2/6 437/2/6
f 429/1/6 430/1/6 437/1/6
f 437/1/6 430/1/6 438/1/6
f 433/2/6 434/2/6 440/2/6
f 419/2/6 426/2/6 440/2/6
f 426/2/6 433/2/6 440/2/6
f 435/1/6 436/1/6 441/1/6
f 434/1/6 435/1/6 441/1/6
f 440/2/6 434/2/6 441/2/6
f 441/1/6 436/1/6 442/1/6
f 432/2/6 425/2/6 443/2/6
f 439/2/6 440/2/6 445/2/6
f 440/2/6 441/2/6 445/2/6
f 441/2/6 442/2/6 445/2/6
f 442/1/6 436/1/6 446/1/6
f 445/2/6 442/2/6 446/2/6
f 437/2/6 438/2/6 447/2/6
f 446/1/6 436/1/6 447/1/6
f 436/2/6 437/2/6 447/2/6
f 438/1/6 430/1/6 448/1/6
f 447/2/6 438/2/6 448/2/6
f 430/2/6 431/2/6 449/2/6
f 448/1/6 430/1/6 449/1/6
f 431/1/6 432/1/6 450/1/6
f 449/2/6 431/2/6 450/2/6
f 443/2/6 444/2/6 451/2/6
f 450/1/6 432/1/6 451/1/6
f 432/2/6 443/2/6 451/2/6
f 439/2/6 445/2/6 452/2/6
f 446/1/6 447/1/6 453/1/6
f 452/2/6 445/2/6 453/2/6
f 445/1/6 446/1/6 453/1/6
f 447/1/6 448/1/6 453/1/6
f 453/1/6 448/1/6 454/1/6
f 454/1/6 448/1/6 455/1/6
f 448/2/6 449/2/6 456/2/6
f 455/1/6 448/1/6 456/1/6
f 449/1/6 450/1/6 457/1/6
f 456/2/6 449/2/6 457/2/6
f 450/2/6 451/2/6 458/2/6
f 457/1/6 450/1/6 458/1/6
f 451/2/6 444/2/6 459/2/6
f 458/2/6 451/2/6 459/2/6
f 439/2/6 452/2/6 460/2/6
f 452/1/6 453/1/6 461/1/6
f 460/2/6 452/2/6 461/2/6
f 453/2/6 454/2/6 462/2/6
f 461/1/6 453/1/6 462/1/6
f 462/2/6 454/2/6 463/2/6
f 463/2/6 454/2/6 464/2/6
f 456/1/6 457/1/6 466/1/6
f 457/1/6 458/1/6 466/1/6
f 458/1/6 459/1/6 466/1/6
f 455/1/6 456/1/6 466/1/6
f 466/1/6 459/1/6 467/1/6
f 467/1/6 459/1/6 468/1/6
f 468/1/6 459/1/6 469/1/6
f 459/2/6 444/2/6 470/2/6
f 469/1/6 459/1/6 470/1/6
f 460/1/6 461/1/6 471/1/6
f 439/2/6 460/2/6 471/2/6
f 462/2/6 463/2/6 472/2/6
f 471/1/6 461/1/6 472/1/6
f 461/2/6 462/2/6 472/2/6
f 472/2/6 463/2/6 473/2/6
f 473/2/6 463/2/6 474/2/6
f 466/1/6 467/1/6 476/1/6
f 465/1/6 466/1/6 476/1/6
f 467/2/6 468/2/6 477/2/6
f 476/1/6 467/1/6 477/1/6
f 477/2/6 468/2/6 478/2/6
f 468/1/6 469/1/6 479/1/6
f 478/2/6 468/2/6 479/2/6
f 469/2/6 470/2/6 480/2/6
f 479/1/6 469/1/6 480/1/6
f 470/2/6 444/2/6 481/2/6
f 480/2/6 470/2/6 481/2/6
f 439/2/6 471/2/6 482/2/6
f 472/2/6 473/2/6 482/2/6
f 471/2/6 472/2/6 482/2/6
f 482/2/6 473/2/6 483/2/6
f 483/2/6 473/2/6 484/2/6
f 481/2/6 444/2/6 485/2/6
f 485/2/6 444/2/6 486/2/6
f 482/2/6 483/2/6 487/2/6
f 487/2/6 483/2/6 488/2/6
f 475/1/6 476/1/6 490/1/6
f 479/2/6 480/2/6 491/2/6
f 478/2/6 479/2/6 491/2/6
f 480/1/6 481/1/6 492/1/6
f 491/2/6 480/2/6 492/2/6
f 481/2/6 485/2/6 493/2/6
f 492/1/6 481/1/6 493/1/6
f 476/2/6 477/2/6 494/2/6
f 477/1/6 478/1/6 495/1/6
f 494/2/6 477/2/6 495/2/6
f 478/2/6 491/2/6 496/2/6
f 495/1/6 478/1/6 496/1/6
f 491/1/6 492/1/6 497/1/6
f 496/2/6 491/2/6 497/2/6
f 492/2/6 493/2/6 498/2/6
f 497/1/6 492/1/6 498/1/6
f 489/2/6 490/2/6 500/2/6
f 490/1/6 476/1/6 501/1/6
f 500/2/6 490/2/6 501/2/6
f 476/2/6 494/2/6 502/2/6
f 501/1/6 476/1/6 502/1/6
f 494/1/6 495/1/6 503/1/6
f 502/2/6 494/2/6 503/2/6
f 496/2/6 497/2/6 504/2/6
f 503/1/6 495/1/6 504/1/6
f 495/2/6 496/2/6 504/2/6
f 497/2/6 498/2/6 504/2/6
f 498/2/6 493/2/6 505/2/6
f 504/2/6 498/2/6 505/2/6
f 493/2/6 485/2/6 506/2/6
f 505/2/6 493/2/6 506/2/6
f 500/1/6 501/1/6 507/1/6
f 499/2/6 500/2/6 507/2/6
f 503/2/6 504/2/6 508/2/6
f 507/1/6 501/1/6 508/1/6
f 501/2/6 502/2/6 508/2/6
f 504/2/6 505/2/6 508/2/6
f 502/2/6 503/2/6 508/2/6
f 508/2/6 505/2/6 509/2/6
f 509/2/6 505/2/6 510/2/6
f 499/2/6 507/2/6 511/2/6
f 507/2/6 508/2/6 511/2/6
f 508/2/6 509/2/6 511/2/6
f 511/2/6 509/2/6 512/2/6
f 512/2/6 509/2/6 513/2/6
f 514/1/6 515/1/6 517/1/6
f 517/1/6 515/1/6 518/1/6
f 516/1/6 517/1/6 521/1/6
f 521/1/6 517/1/6 522/1/6
f 518/1/6 519/1/6 523/1/6
f 523/1/6 519/1/6 524/1/6
f 520/1/6 521/1/6 527/1/6
f 527/1/6 521/1/6 528/1/6
f 524/1/6 525/1/6 529/1/6
f 529/1/6 525/1/6 530/1/6
f 526/1/6 527/1/6 533/1/6
f 533/1/6 527/1/6 534/1/6
f 530/1/6 531/1/6 535/1/6
f 535/1/6 531/1/6 536/1/6
f 532/1/6 533/1/6 538/1/6
f 538/1/6 533/1/6 539/1/6
f 536/1/6 537/1/6 541/1/6
f 541/1/6 537/1/6 542/1/6
f 540/1/6 541/1/6 544/1/6
f 544/1/6 541/1/6 545/1/6
f 543/1/6 544/1/6 547/1/6
f 547/1/6 544/1/6 548/1/6
f 546/1/6 547/1/6 550/1/6
f 550/1/6 547/1/6 551/1/6
f 549/1/6 550/1/6 552/1/6
f 552/1/6 550/1/6 553/1/6
